<svg width="64" height="64" viewBox="0 0 64 64" fill="none" xmlns="http://www.w3.org/2000/svg">
<path d="M59.5 32.5L4.5 32.5" stroke="black" stroke-width="5" stroke-linecap="round" stroke-linejoin="round"/>
<path d="M4.5 32.5L2.69981 30.7653C1.75426 31.7465 1.76868 33.3042 2.73223 34.2678L4.5 32.5ZM29.2322 60.7678C30.2085 61.7441 31.7915 61.7441 32.7678 60.7678C33.7441 59.7915 33.7441 58.2085 32.7678 57.2322L29.2322 60.7678ZM32.8002 6.73473C33.7583 5.74051 33.729 4.15787 32.7347 3.19981C31.7405 2.24174 30.1579 2.27105 29.1998 3.26527L32.8002 6.73473ZM2.73223 34.2678L29.2322 60.7678L32.7678 57.2322L6.26777 30.7322L2.73223 34.2678ZM6.30019 34.2347L32.8002 6.73473L29.1998 3.26527L2.69981 30.7653L6.30019 34.2347Z" fill="black"/>
</svg>
