<svg width="64" height="64" viewBox="0 0 64 64" fill="none" xmlns="http://www.w3.org/2000/svg">
<path d="M36.1481 4H38.6481C38.6481 2.61929 37.5289 1.5 36.1481 1.5V4ZM27.8519 4V1.5C26.4711 1.5 25.3519 2.61929 25.3519 4L27.8519 4ZM36.1481 11.6741H33.6481C33.6481 12.8631 34.4856 13.8876 35.6508 14.1242L36.1481 11.6741ZM43.3384 14.63L41.9699 16.7221C42.9604 17.37 44.2693 17.2346 45.1062 16.3977L43.3384 14.63ZM48.7832 9.18521L50.5509 7.41744C49.5746 6.44113 47.9917 6.44113 47.0154 7.41744L48.7832 9.18521ZM54.6495 15.0516L56.4173 16.8193C56.8861 16.3505 57.1495 15.7146 57.1495 15.0516C57.1495 14.3885 56.8861 13.7527 56.4173 13.2838L54.6495 15.0516ZM49.2383 20.4628L47.4706 18.695C46.6261 19.5395 46.4968 20.8633 47.162 21.8552L49.2383 20.4628ZM52.3259 27.8519L49.8758 28.3492C50.1123 29.5144 51.1368 30.3519 52.3259 30.3519V27.8519ZM60 27.8519H62.5C62.5 26.4712 61.3807 25.3519 60 25.3519V27.8519ZM60 36.1482V38.6482C61.3807 38.6482 62.5 37.5289 62.5 36.1482H60ZM52.3258 36.1482V33.6482C51.1368 33.6482 50.1123 34.4856 49.8758 35.6508L52.3258 36.1482ZM49.3044 43.438L47.2201 42.0576C46.5636 43.0488 46.696 44.3652 47.5366 45.2058L49.3044 43.438ZM54.7322 48.8658L56.4999 50.6336C57.4763 49.6573 57.4763 48.0744 56.4999 47.0981L54.7322 48.8658ZM48.8658 54.7322L47.098 56.5C48.0744 57.4763 49.6573 57.4763 50.6336 56.5L48.8658 54.7322ZM43.438 49.3044L45.2058 47.5366C44.3651 46.696 43.0487 46.5636 42.0576 47.2201L43.438 49.3044ZM36.1481 52.3258L35.6508 49.8758C34.4856 50.1123 33.6481 51.1368 33.6481 52.3258H36.1481ZM36.1481 60V62.5C37.5289 62.5 38.6481 61.3807 38.6481 60H36.1481ZM27.8519 60H25.3519C25.3519 61.3807 26.4711 62.5 27.8519 62.5V60ZM27.8519 52.3258H30.3519C30.3519 51.1368 29.5144 50.1123 28.3492 49.8758L27.8519 52.3258ZM20.4628 49.2383L21.8552 47.162C20.8633 46.4968 19.5395 46.6261 18.695 47.4705L20.4628 49.2383ZM15.0516 54.6496L13.2838 56.4173C13.7526 56.8862 14.3885 57.1496 15.0516 57.1496C15.7146 57.1496 16.3505 56.8862 16.8193 56.4173L15.0516 54.6496ZM9.18518 48.7832L7.41742 47.0154C6.44111 47.9917 6.44111 49.5746 7.41742 50.551L9.18518 48.7832ZM14.63 43.3384L16.3978 45.1062C17.2346 44.2693 17.37 42.9603 16.7222 41.9699L14.63 43.3384ZM11.6742 36.1482L14.1242 35.6508C13.8877 34.4856 12.8632 33.6482 11.6742 33.6482V36.1482ZM4 36.1482H1.5C1.5 37.5289 2.61929 38.6482 4 38.6482L4 36.1482ZM4 27.8519V25.3519C2.61929 25.3519 1.5 26.4712 1.5 27.8519H4ZM11.6741 27.8519V30.3519C12.8631 30.3519 13.8876 29.5144 14.1242 28.3492L11.6741 27.8519ZM14.6956 20.5619L16.7799 21.9424C17.4363 20.9512 17.304 19.6348 16.4633 18.7942L14.6956 20.5619ZM9.26783 15.1342L7.50006 13.3664C7.03122 13.8353 6.76783 14.4712 6.76783 15.1342C6.76783 15.7972 7.03122 16.4331 7.50006 16.902L9.26783 15.1342ZM15.1342 9.26784L16.902 7.50007C16.4331 7.03123 15.7972 6.76784 15.1342 6.76784C14.4712 6.76784 13.8353 7.03123 13.3664 7.50007L15.1342 9.26784ZM20.5619 14.6956L18.7941 16.4633C19.6348 17.304 20.9512 17.4363 21.9424 16.7798L20.5619 14.6956ZM27.8519 11.6741L28.3492 14.1241C29.5144 13.8876 30.3519 12.8631 30.3519 11.6741H27.8519ZM36.1481 1.5H27.8519V6.5H36.1481V1.5ZM38.6481 11.6741V4H33.6481V11.6741H38.6481ZM44.7069 12.5378C42.2951 10.9603 39.5703 9.8178 36.6455 9.22408L35.6508 14.1242C37.9415 14.5891 40.0768 15.4839 41.9699 16.7221L44.7069 12.5378ZM45.1062 16.3977L50.5509 10.953L47.0154 7.41744L41.5707 12.8622L45.1062 16.3977ZM47.0154 10.953L52.8818 16.8193L56.4173 13.2838L50.5509 7.41744L47.0154 10.953ZM52.8818 13.2838L47.4706 18.695L51.0061 22.2305L56.4173 16.8193L52.8818 13.2838ZM54.7759 27.3546C54.1638 24.3392 52.9686 21.5366 51.3147 19.0704L47.162 21.8552C48.4604 23.7913 49.3965 25.9878 49.8758 28.3492L54.7759 27.3546ZM60 25.3519H52.3259V30.3519H60V25.3519ZM62.5 36.1482V27.8519H57.5V36.1482H62.5ZM52.3258 38.6482H60V33.6482H52.3258V38.6482ZM51.3887 44.8185C53.0042 42.3793 54.173 39.6156 54.7759 36.6455L49.8758 35.6508C49.4036 37.9769 48.4883 40.1428 47.2201 42.0576L51.3887 44.8185ZM56.4999 47.0981L51.0722 41.6703L47.5366 45.2058L52.9644 50.6336L56.4999 47.0981ZM50.6336 56.5L56.4999 50.6336L52.9644 47.0981L47.098 52.9644L50.6336 56.5ZM41.6703 51.0722L47.098 56.5L50.6336 52.9644L45.2058 47.5366L41.6703 51.0722ZM36.6455 54.7758C39.6156 54.1729 42.3793 53.0042 44.8185 51.3887L42.0576 47.2201C40.1428 48.4883 37.9769 49.4036 35.6508 49.8758L36.6455 54.7758ZM38.6481 60V52.3258H33.6481V60H38.6481ZM27.8519 62.5H36.1481V57.5H27.8519V62.5ZM25.3519 52.3258V60H30.3519V52.3258H25.3519ZM19.0704 51.3147C21.5366 52.9685 24.3392 54.1638 27.3545 54.7758L28.3492 49.8758C25.9878 49.3964 23.7913 48.4603 21.8552 47.162L19.0704 51.3147ZM18.695 47.4705L13.2838 52.8818L16.8193 56.4173L22.2306 51.0061L18.695 47.4705ZM16.8193 52.8818L10.953 47.0154L7.41742 50.551L13.2838 56.4173L16.8193 52.8818ZM10.953 50.551L16.3978 45.1062L12.8622 41.5706L7.41742 47.0154L10.953 50.551ZM9.22413 36.6455C9.81784 39.5703 10.9603 42.2951 12.5378 44.7069L16.7222 41.9699C15.4839 40.0768 14.5892 37.9415 14.1242 35.6508L9.22413 36.6455ZM4 38.6482H11.6742V33.6482H4V38.6482ZM1.5 27.8519V36.1482H6.5V27.8519H1.5ZM11.6741 25.3519H4V30.3519H11.6741V25.3519ZM12.6113 19.1815C10.9957 21.6207 9.82699 24.3844 9.2241 27.3545L14.1242 28.3492C14.5963 26.0231 15.5117 23.8572 16.7799 21.9424L12.6113 19.1815ZM7.50006 16.902L12.9278 22.3297L16.4633 18.7942L11.0356 13.3664L7.50006 16.902ZM13.3664 7.50007L7.50006 13.3664L11.0356 16.902L16.902 11.0356L13.3664 7.50007ZM22.3297 12.9278L16.902 7.50007L13.3664 11.0356L18.7941 16.4633L22.3297 12.9278ZM27.3545 9.22408C24.3844 9.82698 21.6206 10.9957 19.1814 12.6113L21.9424 16.7798C23.8571 15.5117 26.0231 14.5963 28.3492 14.1241L27.3545 9.22408ZM25.3519 4V11.6741H30.3519V4H25.3519Z" fill="black"/>
<circle cx="32" cy="32" r="10.5" stroke="black" stroke-width="5"/>
</svg>
