<svg width="64" height="64" viewBox="0 0 64 64" fill="none" xmlns="http://www.w3.org/2000/svg">
<g clip-path="url(#clip0)">
<path d="M51.5343 35.1246L29.8133 56.8456C23.5 62.5 16.9278 62.0123 10.2048 55.2894C3.48192 48.5665 3.97987 39.1046 8.02609 35.0584L35.9921 7.09243C39.4158 3.66871 48.0987 2.42979 52.7993 7.7149C57.5 13 56.5343 19.1648 55.2893 21.4098L27.0121 49.687C24.2109 52.4882 19.7741 54.3477 15.496 48.7532C11.4498 43.4621 15.1848 37.8596 17.3635 35.6809L39.1045 13.9399C41.2833 11.7611 45 10.5 47 12.5C49 14.5 48.4419 17.2973 46.5745 19.1648L22.6547 43.0845" stroke="black" stroke-width="5" stroke-linecap="round"/>
</g>
<defs>
<clipPath id="clip0">
<rect width="64" height="64" fill="white"/>
</clipPath>
</defs>
</svg>
