<svg width="64" height="64" viewBox="0 0 64 64" fill="none" xmlns="http://www.w3.org/2000/svg">
<path d="M44 7H20V27H44V7Z" stroke="black" stroke-width="5" stroke-linejoin="round"/>
<path d="M44 37H20V57H44V37Z" stroke="black" stroke-width="5" stroke-linejoin="round"/>
<path d="M27.4999 47.5C26.1192 47.5 24.9999 48.6193 24.9999 50C24.9999 51.3807 26.1192 52.5 27.4999 52.5L27.4999 47.5ZM36.4999 52.5C37.8806 52.5 38.9999 51.3807 38.9999 50C38.9999 48.6193 37.8806 47.5 36.4999 47.5L36.4999 52.5ZM27.4999 52.5L36.4999 52.5L36.4999 47.5L27.4999 47.5L27.4999 52.5Z" fill="black"/>
<path d="M27.4999 40.5C26.1192 40.5 24.9999 41.6193 24.9999 43C24.9999 44.3807 26.1192 45.5 27.4999 45.5L27.4999 40.5ZM36.4999 45.5C37.8806 45.5 38.9999 44.3807 38.9999 43C38.9999 41.6193 37.8806 40.5 36.4999 40.5L36.4999 45.5ZM27.4999 45.5L36.4999 45.5L36.4999 40.5L27.4999 40.5L27.4999 45.5Z" fill="black"/>
<path fill-rule="evenodd" clip-rule="evenodd" d="M15 17H8C5.23858 17 3 19.2386 3 22V42C3 44.7614 5.23858 47 8 47H15V42H8V22H15V17ZM49 42H56V22H49V17H56C58.7614 17 61 19.2386 61 22V42C61 44.7614 58.7614 47 56 47H49V42Z" fill="black"/>
</svg>
