<svg width="64" height="64" viewBox="0 0 64 64" fill="none" xmlns="http://www.w3.org/2000/svg">
<path d="M60 28.6481L61.7384 30.4448C62.2309 29.9682 62.5062 29.3103 62.4999 28.625C62.4936 27.9397 62.2062 27.287 61.7049 26.8197L60 28.6481ZM41.7049 8.17152C40.695 7.22993 39.1131 7.28526 38.1715 8.29511C37.2299 9.30495 37.2853 10.8869 38.2951 11.8285L41.7049 8.17152ZM38.2616 46.2034C37.2693 47.1635 37.2433 48.7462 38.2034 49.7384C39.1635 50.7307 40.7462 50.7567 41.7384 49.7966L38.2616 46.2034ZM61.7049 26.8197L41.7049 8.17152L38.2951 11.8285L58.2951 30.4766L61.7049 26.8197ZM58.2616 26.8515L38.2616 46.2034L41.7384 49.7966L61.7384 30.4448L58.2616 26.8515Z" fill="black"/>
<path d="M59 29.4125C59 29.4125 5.79348 18.9449 4 55" stroke="black" stroke-width="5" stroke-linecap="round"/>
</svg>
