<svg width="128" height="128" viewBox="0 0 128 128" fill="none" xmlns="http://www.w3.org/2000/svg">
<path d="M9 51L52.5 51" stroke="black" stroke-width="5" stroke-linecap="round" stroke-linejoin="round"/>
<path d="M13 51V98.5H123V69" stroke="black" stroke-width="5" stroke-linecap="round" stroke-linejoin="round"/>
<path d="M48.5 51V67.5H125.5" stroke="black" stroke-width="5" stroke-linecap="round" stroke-linejoin="round"/>
<rect x="3" y="29" width="21" height="14" stroke="black" stroke-width="5" stroke-linejoin="round"/>
<path d="M5.5 32C5.5 30.6193 4.38071 29.5 3 29.5C1.61929 29.5 0.5 30.6193 0.5 32L5.5 32ZM0.499999 99C0.499999 100.381 1.61929 101.5 3 101.5C4.38071 101.5 5.5 100.381 5.5 99L0.499999 99ZM0.5 32L0.499999 99L5.5 99L5.5 32L0.5 32Z" fill="black"/>
<rect x="47" y="77" width="18" height="12" stroke="black" stroke-width="5" stroke-linejoin="round"/>
<rect x="72" y="77" width="18" height="12" stroke="black" stroke-width="5" stroke-linejoin="round"/>
<rect x="97" y="77" width="18" height="12" stroke="black" stroke-width="5" stroke-linejoin="round"/>
<rect x="20" y="75" width="19" height="23" stroke="black" stroke-width="5" stroke-linejoin="round"/>
<rect x="12" y="56" width="8" height="7" rx="2" fill="black"/>
<rect x="22" y="56" width="7" height="7" rx="2" fill="black"/>
<rect x="31" y="56" width="7" height="7" rx="2" fill="black"/>
<rect x="40" y="56" width="9" height="7" rx="2" fill="black"/>
</svg>
