<svg width="64" height="64" viewBox="0 0 64 64" fill="none" xmlns="http://www.w3.org/2000/svg">
<g clip-path="url(#clip0)">
<path d="M31.5245 5.62664L31.5248 5.62774C31.5247 5.62737 31.5246 5.62701 31.5245 5.62664L32 5.47214L31.5245 5.62664ZM26.7442 23.266L32 7.09017L37.2558 23.266C37.8583 25.1201 39.5861 26.3754 41.5356 26.3754H58.5438L44.7839 36.3726C43.2067 37.5185 42.5467 39.5496 43.1492 41.4037L48.405 57.5795L34.645 47.5823C33.0678 46.4364 30.9322 46.4364 29.355 47.5823L15.595 57.5795L20.8508 41.4037C21.4533 39.5496 20.7933 37.5185 19.2161 36.3726L5.45618 26.3754H22.4644C24.4139 26.3754 26.1417 25.1201 26.7442 23.266ZM48.8805 59.043C48.8804 59.0428 48.8804 59.0426 48.8803 59.0423L48.8805 59.043ZM15.1195 59.0431L15.1197 59.0423L15.1195 59.0431Z" stroke="black" stroke-width="5" stroke-linejoin="round"/>
</g>
<defs>
<clipPath id="clip0">
<rect width="64" height="64" fill="white"/>
</clipPath>
</defs>
</svg>
