<svg width="128" height="128" viewBox="0 0 128 128" fill="none" xmlns="http://www.w3.org/2000/svg">
<circle cx="64" cy="64" r="60.5" stroke="black" stroke-width="5"/>
<path d="M32 60.9916H41.6361C41.7453 60.9916 41.85 60.9951 41.9592 60.9978C43.1012 61.0254 50 60.9062 50 53.9937C50 47.0812 43.1012 46.962 41.9592 46.9896C41.85 46.9923 41.7453 46.9958 41.6361 46.9958H39.2C39.2 46.9958 39.2 46.9958 39.2 46.9958C39.2 46.9958 32 46.9958 32 39.9979C32 33 39.2 33 39.2 33C39.2 33 39.2 33 39.2 33C43.7301 33 45.0699 33 49.6 33" stroke="black" stroke-width="5" stroke-linecap="round"/>
<path d="M78 60.9916H87.6361C87.7453 60.9916 87.85 60.9951 87.9592 60.9978C89.1012 61.0254 96 60.9062 96 53.9937C96 47.0812 89.1012 46.962 87.9592 46.9896C87.85 46.9923 87.7453 46.9958 87.6361 46.9958H85.2C85.2 46.9958 85.2 46.9958 85.2 46.9958C85.2 46.9958 78 46.9958 78 39.9979C78 33 85.2 33 85.2 33C85.2 33 85.2 33 85.2 33C89.7301 33 91.0699 33 95.6 33" stroke="black" stroke-width="5" stroke-linecap="round"/>
<path d="M84 27V68.5" stroke="black" stroke-width="5" stroke-linecap="round"/>
<path d="M38 26V67.5" stroke="black" stroke-width="5" stroke-linecap="round"/>
<path d="M90 27V68.5" stroke="black" stroke-width="5" stroke-linecap="round"/>
<path d="M44 26V67.5" stroke="black" stroke-width="5" stroke-linecap="round"/>
<path d="M71.1538 84L86.2078 84C87.8162 84 88.68 85.7383 87.5849 86.9163C84.6246 90.1006 79.0146 95.031 71.1538 97.1655M71.1538 84L52.8462 84M71.1538 84L71.1538 97.1655M52.8462 84L37.7922 84C36.1838 84 35.32 85.7383 36.4151 86.9163C39.3755 90.1006 44.9854 95.031 52.8462 97.1655M52.8462 84L52.8462 97.1655M52.8462 97.1655L52.8462 101.702C52.8462 101.702 52.8462 101.702 52.8462 101.702C52.8462 101.702 52.8462 110 62 110C71.1538 110 71.1538 101.702 71.1538 101.702C71.1538 101.702 71.1538 101.702 71.1538 101.702L71.1538 97.1655" stroke="black" stroke-width="5" stroke-linecap="round"/>
</svg>
