<svg width="128" height="128" viewBox="0 0 128 128" fill="none" xmlns="http://www.w3.org/2000/svg">
<circle cx="64" cy="64" r="61" stroke="black" stroke-width="5"/>
<circle cx="64" cy="44" r="24" fill="black" stroke="black" stroke-width="5"/>
<path d="M64.25 82.5C35.5 82.5 21.5 106.5 21.5 106.5L34.5 115.5L62.5 124.5L93.5 116L107 106.5C107 106.5 93 82.5 64.25 82.5Z" fill="black"/>
<path d="M21.5 106.5L19.3406 105.24C18.6827 106.368 19.0035 107.812 20.077 108.555L21.5 106.5ZM107 106.5L108.439 108.545C109.5 107.797 109.814 106.362 109.159 105.24L107 106.5ZM34.5 115.5L33.077 117.555L33.3819 117.767L33.735 117.88L34.5 115.5ZM62.5 124.5L61.735 126.88L62.4434 127.108L63.1611 126.911L62.5 124.5ZM93.5 116L94.1611 118.411L94.5819 118.296L94.9387 118.045L93.5 116ZM21.5 106.5C23.6594 107.76 23.6589 107.761 23.6585 107.761C23.6584 107.761 23.658 107.762 23.6579 107.762C23.6576 107.763 23.6575 107.763 23.6576 107.763C23.6578 107.763 23.6589 107.761 23.6608 107.758C23.6646 107.751 23.6717 107.739 23.6823 107.722C23.7033 107.687 23.7379 107.63 23.7859 107.553C23.882 107.399 24.0318 107.163 24.2357 106.859C24.6436 106.249 25.2664 105.362 26.1051 104.291C27.7847 102.146 30.3173 99.2769 33.7082 96.4088C40.4853 90.6767 50.6213 85 64.25 85V80C49.1287 80 37.8897 86.3233 30.4793 92.5912C26.7765 95.7231 24.0122 98.8539 22.1683 101.209C21.2453 102.388 20.5498 103.376 20.0797 104.079C19.8446 104.43 19.6657 104.711 19.5426 104.908C19.4811 105.007 19.4335 105.085 19.3998 105.141C19.383 105.169 19.3696 105.191 19.3598 105.208C19.3548 105.216 19.3508 105.223 19.3476 105.228C19.346 105.231 19.3446 105.233 19.3434 105.235C19.3428 105.236 19.3421 105.238 19.3418 105.238C19.3412 105.239 19.3406 105.24 21.5 106.5ZM64.25 85C77.8787 85 88.0147 90.6767 94.7918 96.4088C98.1827 99.2769 100.715 102.146 102.395 104.291C103.234 105.362 103.856 106.249 104.264 106.859C104.468 107.163 104.618 107.399 104.714 107.553C104.762 107.63 104.797 107.687 104.818 107.722C104.828 107.739 104.835 107.751 104.839 107.758C104.841 107.761 104.842 107.763 104.842 107.763C104.843 107.763 104.842 107.763 104.842 107.762C104.842 107.762 104.842 107.761 104.841 107.761C104.841 107.761 104.841 107.76 107 106.5C109.159 105.24 109.159 105.239 109.158 105.238C109.158 105.238 109.157 105.236 109.157 105.235C109.155 105.233 109.154 105.231 109.152 105.228C109.149 105.223 109.145 105.216 109.14 105.208C109.13 105.191 109.117 105.169 109.1 105.141C109.067 105.085 109.019 105.007 108.957 104.908C108.834 104.711 108.655 104.43 108.42 104.079C107.95 103.376 107.255 102.388 106.332 101.209C104.488 98.8539 101.724 95.7231 98.0207 92.5912C90.6103 86.3233 79.3713 80 64.25 80V85ZM20.077 108.555L33.077 117.555L35.923 113.445L22.923 104.445L20.077 108.555ZM33.735 117.88L61.735 126.88L63.265 122.12L35.265 113.12L33.735 117.88ZM63.1611 126.911L94.1611 118.411L92.8389 113.589L61.8389 122.089L63.1611 126.911ZM94.9387 118.045L108.439 108.545L105.561 104.455L92.0613 113.955L94.9387 118.045Z" fill="black"/>
</svg>
