<svg width="128" height="128" viewBox="0 0 128 128" fill="none" xmlns="http://www.w3.org/2000/svg">
<path d="M122 63L12 63" stroke="black" stroke-width="5" stroke-linecap="round" stroke-linejoin="round"/>
<path d="M6 62.8627L4.29534 61.0341C3.79429 61.5011 3.50683 62.1533 3.50012 62.8383C3.49341 63.5232 3.76804 64.1809 4.25985 64.6577L6 62.8627ZM65.2599 123.795C66.2512 124.756 67.8339 124.731 68.795 123.74C69.756 122.749 69.7315 121.166 68.7401 120.205L65.2599 123.795ZM68.7047 7.82869C69.7146 6.88723 69.7702 5.3053 68.8287 4.29534C67.8872 3.28538 66.3053 3.22985 65.2953 4.17131L68.7047 7.82869ZM4.25985 64.6577L65.2599 123.795L68.7401 120.205L7.74015 61.0678L4.25985 64.6577ZM7.70466 64.6914L68.7047 7.82869L65.2953 4.17131L4.29534 61.0341L7.70466 64.6914Z" fill="black"/>
</svg>
