<svg width="128" height="128" viewBox="0 0 128 128" fill="none" xmlns="http://www.w3.org/2000/svg">
<path d="M60.7444 4.53553C62.6971 2.58291 65.8629 2.58291 67.8155 4.53553L124.024 60.7444C125.977 62.6971 125.977 65.8629 124.024 67.8155L67.8155 124.024C65.8629 125.977 62.6971 125.977 60.7444 124.024L4.53553 67.8155C2.58291 65.8629 2.58291 62.6971 4.53553 60.7444L60.7444 4.53553Z" stroke="black" stroke-width="5"/>
<path d="M54.9881 91H51C48.2386 91 46 88.7614 46 86V56.5047C46 56.5047 46 46.7757 55.7143 46.7757H74.2194C75.324 46.7757 76.2143 45.8803 76.2143 44.7757V37.7283C76.2143 36.797 77.3755 36.3713 77.9774 37.0821L92.4058 54.1207C92.7417 54.5174 92.7177 55.1053 92.3505 55.4733L77.9222 69.9332C77.2925 70.5643 76.2143 70.1183 76.2143 69.2269V62.4299C76.2143 61.3253 75.3202 60.4299 74.2156 60.4299H65.3452C61 60.4299 59.9881 63 59.9881 66.9159V86C59.9881 88.7614 57.7495 91 54.9881 91Z" stroke="black" stroke-width="5"/>
</svg>
