<svg width="128" height="128" viewBox="0 0 128 128" fill="none" xmlns="http://www.w3.org/2000/svg">
<path fill-rule="evenodd" clip-rule="evenodd" d="M100 48V108C100 110.761 97.7614 113 95 113H33C30.2386 113 28 110.761 28 108V21C28 18.2386 30.2386 16 33 16H69V38C69 43.5228 73.4771 48 79 48H100ZM98.0833 38L79 18.087V38H98.0833Z" fill="black"/>
<path d="M100 48H102.5C102.5 46.6193 101.381 45.5 100 45.5V48ZM69 16H71.5C71.5 14.6193 70.3807 13.5 69 13.5V16ZM98.0833 38V40.5C99.0848 40.5 99.9897 39.9023 100.383 38.9812C100.776 38.0601 100.581 36.9933 99.8883 36.2702L98.0833 38ZM79 18.087L80.805 16.3572C80.0986 15.6202 79.0152 15.3866 78.0679 15.7672C77.1207 16.1478 76.5 17.0661 76.5 18.087H79ZM79 38H76.5C76.5 39.3807 77.6193 40.5 79 40.5V38ZM102.5 108V48H97.5V108H102.5ZM95 115.5C99.1421 115.5 102.5 112.142 102.5 108H97.5C97.5 109.381 96.3807 110.5 95 110.5V115.5ZM33 115.5H95V110.5H33V115.5ZM25.5 108C25.5 112.142 28.8579 115.5 33 115.5V110.5C31.6193 110.5 30.5 109.381 30.5 108H25.5ZM25.5 21V108H30.5V21H25.5ZM33 13.5C28.8579 13.5 25.5 16.8579 25.5 21H30.5C30.5 19.6193 31.6193 18.5 33 18.5V13.5ZM69 13.5H33V18.5H69V13.5ZM71.5 38V16H66.5V38H71.5ZM79 45.5C74.8579 45.5 71.5 42.1421 71.5 38H66.5C66.5 44.9036 72.0964 50.5 79 50.5V45.5ZM100 45.5H79V50.5H100V45.5ZM99.8883 36.2702L80.805 16.3572L77.195 19.8167L96.2784 39.7298L99.8883 36.2702ZM76.5 18.087V38H81.5V18.087H76.5ZM79 40.5H98.0833V35.5H79V40.5Z" fill="black"/>
</svg>
