<svg width="128" height="128" viewBox="0 0 128 128" fill="none" xmlns="http://www.w3.org/2000/svg">
<path d="M100 108V42.009C100 40.7198 99.502 39.4803 98.6099 38.5495L78.4763 17.5405C77.5332 16.5564 76.2293 16 74.8663 16H33C30.2386 16 28 18.2386 28 21V108C28 110.761 30.2386 113 33 113H95C97.7614 113 100 110.761 100 108Z" stroke="black" stroke-width="5" stroke-linecap="round" stroke-linejoin="round"/>
<path d="M74 16V38C74 40.7614 76.2386 43 79 43H101" stroke="black" stroke-width="5"/>
<path d="M43 95.5C41.6193 95.5 40.5 96.6193 40.5 98C40.5 99.3807 41.6193 100.5 43 100.5V95.5ZM85.5 100.5C86.8807 100.5 88 99.3807 88 98C88 96.6193 86.8807 95.5 85.5 95.5V100.5ZM43 100.5H85.5V95.5H43V100.5Z" fill="black"/>
<path d="M43 81.5C41.6193 81.5 40.5 82.6193 40.5 84C40.5 85.3807 41.6193 86.5 43 86.5V81.5ZM85.5 86.5C86.8807 86.5 88 85.3807 88 84C88 82.6193 86.8807 81.5 85.5 81.5V86.5ZM43 86.5H85.5V81.5H43V86.5Z" fill="black"/>
<path d="M43 67.5C41.6193 67.5 40.5 68.6193 40.5 70C40.5 71.3807 41.6193 72.5 43 72.5V67.5ZM85.5 72.5C86.8807 72.5 88 71.3807 88 70C88 68.6193 86.8807 67.5 85.5 67.5V72.5ZM43 72.5H85.5V67.5H43V72.5Z" fill="black"/>
<path d="M43 53.5C41.6193 53.5 40.5 54.6193 40.5 56C40.5 57.3807 41.6193 58.5 43 58.5V53.5ZM85 58.5C86.3807 58.5 87.5 57.3807 87.5 56C87.5 54.6193 86.3807 53.5 85 53.5V58.5ZM43 58.5H85V53.5H43V58.5Z" fill="black"/>
</svg>
