<svg width="128" height="128" viewBox="0 0 128 128" fill="none" xmlns="http://www.w3.org/2000/svg">
<path d="M42.9956 24.8222L41.8125 22.6199L42.9956 24.8222ZM24.3235 18.8237L22.5557 17.056L24.3235 18.8237ZM31.3946 18.8237L29.6268 20.5915L31.3946 18.8237ZM18.8238 31.3945L20.5916 29.6267L18.8238 31.3945ZM18.8238 24.3234L17.056 22.5557L18.8238 24.3234ZM24.0295 36.6002L22.2618 38.368L24.0295 36.6002ZM21.4417 51.149L19.0482 50.4272L21.4417 51.149ZM21.4417 76.851L19.0482 77.5728L21.4417 76.851ZM23.9058 91.1693L22.1381 89.4015L23.9058 91.1693ZM24.7131 84.7999L22.5046 85.9716L24.7131 84.7999ZM18.6466 103.5L20.4144 101.732L18.6466 103.5ZM18.6466 96.4285L16.8789 94.6607L18.6466 96.4285ZM31.2174 108.999L29.4496 107.231L31.2174 108.999ZM24.1463 108.999L22.3786 110.767L24.1463 108.999ZM42.7921 103.068L43.9867 100.872L42.7921 103.068ZM36.3709 103.846L38.1386 105.614L36.3709 103.846ZM51.1489 106.558L50.4272 108.952L51.1489 106.558ZM85.0044 103.178L86.1876 105.38L85.0044 103.178ZM103.178 85.0043L100.975 83.8211L103.178 85.0043ZM106.558 76.8511L108.952 77.5728L106.558 76.8511ZM106.558 51.149L108.952 50.4272L106.558 51.149ZM103.846 36.3709L105.614 38.1387L103.846 36.3709ZM103.068 42.7921L100.872 43.9868L103.068 42.7921ZM108.999 24.1464L110.767 22.3787L108.999 24.1464ZM108.999 31.2175L107.231 29.4497L108.999 31.2175ZM103.499 18.6467L101.732 20.4145L103.499 18.6467ZM84.7999 24.7131L83.6282 26.9215L84.7999 24.7131ZM91.1692 23.9059L89.4014 22.1381L91.1692 23.9059ZM67.8888 1.5H60.1111V6.5H67.8888V1.5ZM75.3888 16.3576V9H70.3888V16.3576H75.3888ZM85.9715 22.5047C83.3137 21.0946 80.5038 19.9321 77.5727 19.0482L76.1292 23.8353C78.7455 24.6243 81.2543 25.6621 83.6282 26.9215L85.9715 22.5047ZM92.937 25.6736L98.1961 20.4145L94.6606 16.879L89.4014 22.1381L92.937 25.6736ZM101.732 20.4145L107.231 25.9142L110.767 22.3787L105.267 16.879L101.732 20.4145ZM107.231 29.4497L102.078 34.6031L105.614 38.1387L110.767 32.9853L107.231 29.4497ZM108.952 50.4272C108.02 47.3372 106.778 44.3819 105.264 41.5974L100.872 43.9868C102.225 46.4739 103.333 49.1126 104.165 51.8708L108.952 50.4272ZM119 52.6112H111.642V57.6112H119V52.6112ZM126.5 67.8889V60.1112H121.5V67.8889H126.5ZM111.642 75.3889H119V70.3889H111.642V75.3889ZM105.38 86.1875C106.842 83.4661 108.044 80.5834 108.952 77.5728L104.165 76.1293C103.354 78.8165 102.281 81.3904 100.975 83.8211L105.38 86.1875ZM110.944 94.8377L105.738 89.6318L102.203 93.1674L107.409 98.3732L110.944 94.8377ZM105.444 110.944L110.944 105.444L107.409 101.909L101.909 107.408L105.444 110.944ZM89.6319 105.738L94.8378 110.944L98.3733 107.408L93.1675 102.203L89.6319 105.738ZM77.5728 108.952C80.5834 108.044 83.4662 106.842 86.1876 105.38L83.8212 100.975C81.3904 102.281 78.8165 103.354 76.1292 104.165L77.5728 108.952ZM75.3888 119V111.642H70.3888V119H75.3888ZM60.1111 126.5H67.8888V121.5H60.1111V126.5ZM52.6111 111.642V119H57.6111V111.642H52.6111ZM41.5974 105.264C44.3818 106.779 47.3371 108.02 50.4272 108.952L51.8707 104.165C49.1125 103.333 46.4738 102.225 43.9867 100.872L41.5974 105.264ZM34.6031 102.078L29.4496 107.231L32.9852 110.767L38.1386 105.614L34.6031 102.078ZM25.9141 107.231L20.4144 101.732L16.8789 105.267L22.3786 110.767L25.9141 107.231ZM20.4144 98.1962L25.6736 92.937L22.1381 89.4015L16.8789 94.6607L20.4144 98.1962ZM19.0482 77.5728C19.9321 80.5039 21.0945 83.3138 22.5046 85.9716L26.9215 83.6283C25.6621 81.2544 24.6242 78.7456 23.8353 76.1293L19.0482 77.5728ZM9 75.3889H16.3575V70.3889H9V75.3889ZM1.5 60.1111V67.8889H6.5V60.1111H1.5ZM16.3575 52.6111H9V57.6111H16.3575V52.6111ZM22.6199 41.8124C21.1578 44.5338 19.956 47.4166 19.0482 50.4272L23.8352 51.8708C24.6456 49.1834 25.7185 46.6095 27.0245 44.1787L22.6199 41.8124ZM17.056 33.1623L22.2618 38.368L25.7973 34.8325L20.5916 29.6267L17.056 33.1623ZM22.5557 17.056L17.056 22.5557L20.5916 26.0912L26.0913 20.5915L22.5557 17.056ZM38.3681 22.2617L33.1623 17.056L29.6268 20.5915L34.8326 25.7973L38.3681 22.2617ZM50.4272 19.0482C47.4166 19.9561 44.5338 21.1578 41.8125 22.6199L44.1788 27.0245C46.6096 25.7186 49.1834 24.6456 51.8707 23.8353L50.4272 19.0482ZM52.6111 9V16.3576H57.6111V9H52.6111ZM51.8707 23.8353C55.0703 22.8705 57.6111 19.9711 57.6111 16.3576H52.6111C52.6111 17.5 51.7811 18.6399 50.4272 19.0482L51.8707 23.8353ZM34.8326 25.7973C37.3873 28.3519 41.2339 28.6067 44.1788 27.0245L41.8125 22.6199C40.5682 23.2884 39.176 23.0697 38.3681 22.2617L34.8326 25.7973ZM26.0913 20.5915C27.0676 19.6152 28.6505 19.6152 29.6268 20.5915L33.1623 17.056C30.2334 14.127 25.4847 14.127 22.5557 17.056L26.0913 20.5915ZM20.5916 29.6267C19.6152 28.6504 19.6152 27.0675 20.5916 26.0912L17.056 22.5557C14.1271 25.4846 14.1271 30.2333 17.056 33.1623L20.5916 29.6267ZM27.0245 44.1787C28.6067 41.2338 28.352 37.3872 25.7973 34.8325L22.2618 38.368C23.0697 39.1759 23.2884 40.5681 22.6199 41.8124L27.0245 44.1787ZM16.3575 57.6111C19.9711 57.6111 22.8704 55.0703 23.8352 51.8708L19.0482 50.4272C18.6399 51.7812 17.4999 52.6111 16.3575 52.6111V57.6111ZM6.5 60.1111C6.5 58.7304 7.61929 57.6111 9 57.6111V52.6111C4.85787 52.6111 1.5 55.969 1.5 60.1111H6.5ZM9 70.3889C7.61929 70.3889 6.5 69.2696 6.5 67.8889H1.5C1.5 72.0311 4.85786 75.3889 9 75.3889V70.3889ZM23.8353 76.1293C22.8704 72.9297 19.9711 70.3889 16.3575 70.3889V75.3889C17.5 75.3889 18.6399 76.2189 19.0482 77.5728L23.8353 76.1293ZM25.6736 92.937C28.2166 90.394 28.4814 86.5685 26.9215 83.6283L22.5046 85.9716C23.1633 87.2132 22.9425 88.5971 22.1381 89.4015L25.6736 92.937ZM20.4144 101.732C19.4381 100.755 19.4381 99.1726 20.4144 98.1962L16.8789 94.6607C13.9499 97.5896 13.9499 102.338 16.8789 105.267L20.4144 101.732ZM29.4496 107.231C28.4733 108.208 26.8904 108.208 25.9141 107.231L22.3786 110.767C25.3075 113.696 30.0562 113.696 32.9852 110.767L29.4496 107.231ZM43.9867 100.872C41.0373 99.2671 37.1695 99.5117 34.6031 102.078L38.1386 105.614C38.9501 104.802 40.3506 104.586 41.5974 105.264L43.9867 100.872ZM57.6111 111.642C57.6111 108.029 55.0703 105.129 51.8707 104.165L50.4272 108.952C51.7811 109.36 52.6111 110.5 52.6111 111.642H57.6111ZM60.1111 121.5C58.7304 121.5 57.6111 120.381 57.6111 119H52.6111C52.6111 123.142 55.9689 126.5 60.1111 126.5V121.5ZM70.3888 119C70.3888 120.381 69.2696 121.5 67.8888 121.5V126.5C72.031 126.5 75.3888 123.142 75.3888 119H70.3888ZM76.1292 104.165C72.9297 105.129 70.3888 108.029 70.3888 111.642H75.3888C75.3888 110.5 76.2188 109.36 77.5728 108.952L76.1292 104.165ZM93.1675 102.203C90.6128 99.648 86.7661 99.3932 83.8212 100.975L86.1876 105.38C87.4318 104.711 88.824 104.93 89.6319 105.738L93.1675 102.203ZM101.909 107.408C100.933 108.385 99.3496 108.385 98.3733 107.408L94.8378 110.944C97.7667 113.873 102.515 113.873 105.444 110.944L101.909 107.408ZM107.409 98.3732C108.385 99.3495 108.385 100.932 107.409 101.909L110.944 105.444C113.873 102.515 113.873 97.7666 110.944 94.8377L107.409 98.3732ZM100.975 83.8211C99.3933 86.766 99.648 90.6127 102.203 93.1674L105.738 89.6318C104.93 88.8239 104.712 87.4317 105.38 86.1875L100.975 83.8211ZM111.642 70.3889C108.029 70.3889 105.129 72.9297 104.165 76.1293L108.952 77.5728C109.36 76.2189 110.5 75.3889 111.642 75.3889V70.3889ZM121.5 67.8889C121.5 69.2696 120.381 70.3889 119 70.3889V75.3889C123.142 75.3889 126.5 72.0311 126.5 67.8889H121.5ZM119 57.6112C120.381 57.6112 121.5 58.7304 121.5 60.1112H126.5C126.5 55.969 123.142 52.6112 119 52.6112V57.6112ZM104.165 51.8708C105.129 55.0703 108.029 57.6112 111.642 57.6112V52.6112C110.5 52.6112 109.36 51.7812 108.952 50.4272L104.165 51.8708ZM102.078 34.6031C99.5116 37.1695 99.2671 41.0373 100.872 43.9868L105.264 41.5974C104.585 40.3506 104.802 38.9502 105.614 38.1387L102.078 34.6031ZM107.231 25.9142C108.208 26.8905 108.208 28.4734 107.231 29.4497L110.767 32.9853C113.696 30.0563 113.696 25.3076 110.767 22.3787L107.231 25.9142ZM98.1961 20.4145C99.1724 19.4382 100.755 19.4382 101.732 20.4145L105.267 16.879C102.338 13.95 97.5895 13.95 94.6606 16.879L98.1961 20.4145ZM83.6282 26.9215C86.5684 28.4814 90.394 28.2166 92.937 25.6736L89.4014 22.1381C88.5971 22.9425 87.2132 23.1634 85.9715 22.5047L83.6282 26.9215ZM70.3888 16.3576C70.3888 19.9711 72.9296 22.8705 76.1292 23.8353L77.5727 19.0482C76.2188 18.6399 75.3888 17.5 75.3888 16.3576H70.3888ZM60.1111 1.5C55.9689 1.5 52.6111 4.85786 52.6111 9H57.6111C57.6111 7.61929 58.7304 6.5 60.1111 6.5V1.5ZM67.8888 6.5C69.2696 6.5 70.3888 7.61929 70.3888 9H75.3888C75.3888 4.85787 72.031 1.5 67.8888 1.5V6.5Z" fill="black"/>
<circle cx="64" cy="64" r="25.5" stroke="black" stroke-width="5"/>
</svg>
