<svg width="128" height="128" viewBox="0 0 128 128" fill="none" xmlns="http://www.w3.org/2000/svg">
<path d="M122 113H6" stroke="black" stroke-width="5" stroke-linecap="round" stroke-linejoin="round"/>
<path d="M93 111L93 52C93 49.2386 95.2386 47 98 47L108 47C110.761 47 113 49.2386 113 52L113 111" stroke="black" stroke-width="5" stroke-linecap="round" stroke-linejoin="round"/>
<path d="M54 112L54 22C54 19.2386 56.2386 17 59 17L69 17C71.7614 17 74 19.2386 74 22L74 112" stroke="black" stroke-width="5" stroke-linecap="round" stroke-linejoin="round"/>
<path d="M16 111L16 81C16 78.2386 18.2386 76 21 76L31 76C33.7614 76 36 78.2386 36 81L36 111" stroke="black" stroke-width="5" stroke-linecap="round" stroke-linejoin="round"/>
</svg>
