<svg width="128" height="128" viewBox="0 0 128 128" fill="none" xmlns="http://www.w3.org/2000/svg">
<path d="M26 111V73C26 70.2386 23.7614 68 21 68H10.93C10.0369 68 9.59175 66.9183 10.2262 66.2896L59.5436 17.4247C61.4676 15.5184 64.5595 15.4905 66.5175 17.3619L117.697 66.2771C118.349 66.9002 117.908 68 117.006 68H105C102.239 68 100 70.2386 100 73V111C100 113.761 97.7614 116 95 116H81C78.2386 116 76 113.761 76 111V85C76 82.2386 73.7614 80 71 80H55C52.2386 80 50 82.2386 50 85V111C50 113.761 47.7614 116 45 116H31C28.2386 116 26 113.761 26 111Z" fill="black" stroke="black" stroke-width="5"/>
<path d="M96 23V48.1204C96 50.7399 92.8782 52.1012 90.9586 50.3187L82.9586 42.8902C82.3473 42.3225 82 41.526 82 40.6918V23C82 20.2386 84.2386 18 87 18H91C93.7614 18 96 20.2386 96 23Z" fill="black" stroke="black" stroke-width="5"/>
</svg>
