<svg width="128" height="128" viewBox="0 0 128 128" fill="none" xmlns="http://www.w3.org/2000/svg">
<path d="M96 36C96 19.4315 81.6731 6 64 6C46.3269 6 32 19.4315 32 36" stroke="black" stroke-width="5"/>
<path d="M85 37C85 25.9543 75.598 17 64 17C52.402 17 43 25.9543 43 37" stroke="black" stroke-width="5"/>
<rect x="22" y="37" width="85" height="85" rx="5" stroke="black" stroke-width="5"/>
<path d="M70.5445 100H57.4555C56.1882 100 55.2404 98.8364 55.4968 97.5953L59.5939 77.7654C59.818 76.681 59.0999 75.6544 58.0845 75.2129C55.0223 73.8816 54 71.0826 54 67C54 61.4772 58.4772 57 64 57C69.5228 57 74 61.4772 74 67C74 71.0826 72.9777 73.8816 69.9155 75.2129C68.9001 75.6544 68.182 76.681 68.4061 77.7654L72.5032 97.5953C72.7596 98.8364 71.8118 100 70.5445 100Z" stroke="black" stroke-width="5"/>
</svg>
