<svg width="128" height="128" viewBox="0 0 128 128" fill="none" xmlns="http://www.w3.org/2000/svg">
<path d="M40 76V116C40 118.761 42.2386 121 45 121H57C59.7614 121 62 118.761 62 116V76" stroke="black" stroke-width="5" stroke-linejoin="round"/>
<path d="M73.7947 76.8091H17C14.2386 76.8091 12 74.5705 12 71.8091V47.1909C12 44.4295 14.2386 42.1909 17 42.1909H73.7947C75.212 42.1909 76.5627 41.5894 77.5109 40.536L105.284 9.68287C108.349 6.27722 114 8.44583 114 13.028V105.972C114 110.554 108.349 112.723 105.284 109.317L77.5109 78.4639C76.5627 77.4105 75.212 76.8091 73.7947 76.8091Z" stroke="black" stroke-width="5" stroke-linejoin="round"/>
</svg>
