<svg width="128" height="128" viewBox="0 0 128 128" fill="none" xmlns="http://www.w3.org/2000/svg">
<path fill-rule="evenodd" clip-rule="evenodd" d="M119 36.0774L83.2424 60.7826L119 91.416V36.0774ZM110.204 30H18.6881L64.0262 61.9045L110.204 30ZM10 36.114V91.365L45.0571 60.7838L10 36.114ZM17.6062 98H111.315L74.7338 66.6612L69.7105 70.1318C66.2636 72.5133 61.6976 72.4937 58.2713 70.0826L53.4771 66.7089L17.6062 98Z" fill="black"/>
<path d="M83.2424 60.7826L81.8213 58.7257C81.1833 59.1665 80.786 59.8785 80.7458 60.6529C80.7055 61.4273 81.027 62.1766 81.6159 62.6811L83.2424 60.7826ZM119 36.0774H121.5C121.5 35.1479 120.984 34.2952 120.161 33.8635C119.338 33.4317 118.344 33.4922 117.579 34.0205L119 36.0774ZM119 91.416L117.374 93.3146C118.115 93.9497 119.158 94.0952 120.045 93.6872C120.932 93.2792 121.5 92.3922 121.5 91.416H119ZM110.204 30L111.625 32.0568C112.525 31.435 112.916 30.3001 112.591 29.2557C112.265 28.2113 111.298 27.5 110.204 27.5V30ZM18.6881 30V27.5C17.5981 27.5 16.6337 28.2062 16.3047 29.2454C15.9757 30.2846 16.358 31.4172 17.2494 32.0445L18.6881 30ZM64.0262 61.9045L62.5875 63.949C63.4441 64.5518 64.5856 64.5567 65.4473 63.9613L64.0262 61.9045ZM10 36.114L11.4387 34.0694C10.6755 33.5323 9.67658 33.4651 8.84823 33.8951C8.01987 34.3251 7.5 35.1807 7.5 36.114H10ZM10 91.365H7.5C7.5 92.3453 8.07289 93.2351 8.96523 93.6408C9.85758 94.0466 10.9047 93.8933 11.6434 93.249L10 91.365ZM45.0571 60.7838L46.7005 62.6677C47.2791 62.163 47.5937 61.4204 47.5538 60.6537C47.5138 59.8869 47.1238 59.1811 46.4959 58.7392L45.0571 60.7838ZM17.6062 98L15.9628 96.1161C15.1774 96.8012 14.8995 97.9016 15.2653 98.8775C15.6311 99.8534 16.564 100.5 17.6062 100.5V98ZM111.315 98V100.5C112.361 100.5 113.297 99.8484 113.66 98.8671C114.022 97.8857 113.736 96.7822 112.941 96.1014L111.315 98ZM74.7338 66.6612L76.3603 64.7626C75.4982 64.0241 74.2467 63.9591 73.3128 64.6044L74.7338 66.6612ZM69.7105 70.1318L68.2895 68.075L68.2895 68.075L69.7105 70.1318ZM58.2713 70.0826L59.71 68.0381L59.71 68.0381L58.2713 70.0826ZM53.4771 66.7089L54.9158 64.6644C53.9741 64.0017 52.7015 64.068 51.8337 64.825L53.4771 66.7089ZM84.6635 62.8394L120.421 38.1342L117.579 34.0205L81.8213 58.7257L84.6635 62.8394ZM120.626 89.5175L84.8689 58.884L81.6159 62.6811L117.374 93.3146L120.626 89.5175ZM121.5 91.416V36.0774H116.5V91.416H121.5ZM110.204 27.5H18.6881V32.5H110.204V27.5ZM65.4649 59.86L20.1269 27.9555L17.2494 32.0445L62.5875 63.949L65.4649 59.86ZM108.783 27.9432L62.6051 59.8477L65.4473 63.9613L111.625 32.0568L108.783 27.9432ZM7.5 36.114V91.365H12.5V36.114H7.5ZM43.4137 58.8998L8.35659 89.4811L11.6434 93.249L46.7005 62.6677L43.4137 58.8998ZM8.56127 38.1585L43.6184 62.8283L46.4959 58.7392L11.4387 34.0694L8.56127 38.1585ZM17.6062 100.5H111.315V95.5H17.6062V100.5ZM73.1074 68.5597L109.688 99.8986L112.941 96.1014L76.3603 64.7626L73.1074 68.5597ZM71.1316 72.1887L76.1549 68.718L73.3128 64.6044L68.2895 68.075L71.1316 72.1887ZM56.8326 72.1271C61.1154 75.141 66.823 75.1655 71.1316 72.1887L68.2895 68.075C65.7043 69.8611 62.2797 69.8464 59.71 68.0381L56.8326 72.1271ZM52.0384 68.7534L56.8326 72.1271L59.71 68.0381L54.9158 64.6644L52.0384 68.7534ZM19.2496 99.8839L55.1205 68.5928L51.8337 64.825L15.9628 96.1161L19.2496 99.8839Z" fill="black"/>
<path d="M114 30H15C12.2386 30 10 32.2386 10 35V93C10 95.7614 12.2386 98 15 98H114C116.761 98 119 95.7614 119 93V35C119 32.2386 116.761 30 114 30Z" stroke="black" stroke-width="5" stroke-linecap="round" stroke-linejoin="round"/>
</svg>
