<svg width="128" height="128" viewBox="0 0 128 128" fill="none" xmlns="http://www.w3.org/2000/svg">
<path d="M28 88L30.3433 88.8712C30.6286 88.1038 30.5201 87.2454 30.0528 86.5731C29.5855 85.9009 28.8187 85.5 28 85.5V88ZM51 88V85.5C50.3004 85.5 49.6328 85.7932 49.1594 86.3082L51 88ZM29.4308 111.467L31.1761 113.257L31.2251 113.21L31.2715 113.159L29.4308 111.467ZM21.2538 106.145L18.9105 105.274L18.9105 105.274L21.2538 106.145ZM18 17.5H111V12.5H18V17.5ZM113.5 20V83H118.5V20H113.5ZM15.5 83V20H10.5V83H15.5ZM28 85.5H18V90.5H28V85.5ZM111 85.5H51V90.5H111V85.5ZM49.1594 86.3082L27.5902 109.776L31.2715 113.159L52.8406 89.6918L49.1594 86.3082ZM23.5971 107.016L30.3433 88.8712L25.6567 87.1288L18.9105 105.274L23.5971 107.016ZM27.6856 109.677C25.7758 111.54 22.6675 109.516 23.5971 107.016L18.9105 105.274C16.1219 112.774 25.4465 118.844 31.1761 113.257L27.6856 109.677ZM10.5 83C10.5 87.1421 13.8579 90.5 18 90.5V85.5C16.6193 85.5 15.5 84.3807 15.5 83H10.5ZM113.5 83C113.5 84.3807 112.381 85.5 111 85.5V90.5C115.142 90.5 118.5 87.1421 118.5 83H113.5ZM111 17.5C112.381 17.5 113.5 18.6193 113.5 20H118.5C118.5 15.8579 115.142 12.5 111 12.5V17.5ZM18 12.5C13.8579 12.5 10.5 15.8579 10.5 20H15.5C15.5 18.6193 16.6193 17.5 18 17.5V12.5Z" fill="black"/>
</svg>
