<svg width="128" height="128" viewBox="0 0 128 128" fill="none" xmlns="http://www.w3.org/2000/svg">
<path d="M14.1181 12.4602C14.9001 33.8058 20.7663 124.5 64 124.5C107.251 124.5 113.105 33.7339 113.883 12.4349C113.946 10.7053 111.885 9.75996 110.498 10.795C105.597 14.4524 96.4032 20.386 88.5 20.25C79.7141 20.0988 69.4369 9.9459 65.5736 5.76712C64.7312 4.85584 63.264 4.85098 62.416 5.75719C58.4828 9.96081 47.9422 20.25 39 20.25C31.2622 20.25 22.3276 14.4423 17.5128 10.8246C16.1261 9.78273 14.0546 10.7269 14.1181 12.4602Z" stroke="black" stroke-width="5"/>
<path d="M64 4.5V124" stroke="black" stroke-width="5"/>
<path d="M19 63C19 63 39 69 63.5 69C88 69 108 63 108 63" stroke="black" stroke-width="5"/>
</svg>
