<svg width="128" height="128" viewBox="0 0 128 128" fill="none" xmlns="http://www.w3.org/2000/svg">
<g clip-path="url(#clip0_329:44)">
<path d="M62.0979 8.8541C62.6966 7.01148 65.3034 7.01148 65.9021 8.8541L78.8179 48.6049C79.0857 49.4289 79.8536 49.9868 80.72 49.9868L122.516 49.9868C124.454 49.9868 125.259 52.4661 123.692 53.6049L89.878 78.1722C89.177 78.6815 88.8837 79.5842 89.1515 80.4083L102.067 120.159C102.666 122.002 100.557 123.534 98.9896 122.395L65.1756 97.8278C64.4746 97.3185 63.5254 97.3185 62.8244 97.8278L29.0104 122.395C27.443 123.534 25.334 122.002 25.9327 120.159L38.8485 80.4083C39.1163 79.5842 38.823 78.6815 38.122 78.1722L4.30795 53.6049C2.74052 52.4661 3.54608 49.9868 5.48352 49.9868L47.28 49.9868C48.1464 49.9868 48.9143 49.4289 49.1821 48.6049L62.0979 8.8541Z" stroke="black" stroke-width="5"/>
</g>
<defs>
<clipPath id="clip0_329:44">
<rect width="128" height="128" fill="white"/>
</clipPath>
</defs>
</svg>
