<svg width="128" height="128" viewBox="0 0 128 128" fill="none" xmlns="http://www.w3.org/2000/svg">
<path fill-rule="evenodd" clip-rule="evenodd" d="M45 16H33C30.2386 16 28 18.2386 28 21V83V91V95.5H45V16ZM28 105.5V108C28 110.761 30.2386 113 33 113H90V105.5H50H28ZM96.2932 95.8312C98.4278 95.2612 100 93.3142 100 91V21C100 18.2386 97.7614 16 95 16H55V95.5H94.5C95.132 95.5 95.7365 95.6172 96.2932 95.8312Z" fill="black"/>
<path d="M45 16H47.5C47.5 14.6193 46.3807 13.5 45 13.5V16ZM28 95.5H25.5C25.5 96.8807 26.6193 98 28 98V95.5ZM45 95.5V98C46.3807 98 47.5 96.8807 47.5 95.5H45ZM28 105.5V103C26.6193 103 25.5 104.119 25.5 105.5H28ZM90 113V115.5C91.3807 115.5 92.5 114.381 92.5 113H90ZM90 105.5H92.5C92.5 104.119 91.3807 103 90 103V105.5ZM96.2932 95.8312L95.3963 98.1648C95.8887 98.354 96.4284 98.3826 96.9381 98.2466L96.2932 95.8312ZM55 16V13.5C53.6193 13.5 52.5 14.6193 52.5 16H55ZM55 95.5H52.5C52.5 96.8807 53.6193 98 55 98V95.5ZM90 110.5C88.6193 110.5 87.5 111.619 87.5 113C87.5 114.381 88.6193 115.5 90 115.5V110.5ZM100 115.5C101.381 115.5 102.5 114.381 102.5 113C102.5 111.619 101.381 110.5 100 110.5V115.5ZM29.7255 97.7487C30.9674 98.352 32.4633 97.8343 33.0666 96.5924C33.67 95.3505 33.1523 93.8546 31.9104 93.2513L29.7255 97.7487ZM30.5 91C30.5 89.6193 29.3807 88.5 28 88.5C26.6193 88.5 25.5 89.6193 25.5 91H30.5ZM33 18.5H45V13.5H33V18.5ZM30.5 21C30.5 19.6193 31.6193 18.5 33 18.5V13.5C28.8579 13.5 25.5 16.8579 25.5 21H30.5ZM30.5 83V21H25.5V83H30.5ZM30.5 91V83H25.5V91H30.5ZM30.5 95.5V91H25.5V95.5H30.5ZM28 98H45V93H28V98ZM47.5 95.5V16H42.5V95.5H47.5ZM30.5 108V105.5H25.5V108H30.5ZM33 110.5C31.6193 110.5 30.5 109.381 30.5 108H25.5C25.5 112.142 28.8579 115.5 33 115.5V110.5ZM90 110.5H33V115.5H90V110.5ZM87.5 105.5V113H92.5V105.5H87.5ZM90 103H50V108H90V103ZM50 103H28V108H50V103ZM97.5 91C97.5 92.1536 96.7164 93.1306 95.6483 93.4158L96.9381 98.2466C100.139 97.3919 102.5 94.4748 102.5 91H97.5ZM97.5 21V91H102.5V21H97.5ZM95 18.5C96.3807 18.5 97.5 19.6193 97.5 21H102.5C102.5 16.8579 99.1421 13.5 95 13.5V18.5ZM55 18.5H95V13.5H55V18.5ZM52.5 16V95.5H57.5V16H52.5ZM55 98H94.5V93H55V98ZM94.5 98C94.8206 98 95.1214 98.0591 95.3963 98.1648L97.19 93.4976C96.3517 93.1754 95.4434 93 94.5 93V98ZM90 115.5H100V110.5H90V115.5ZM31.9104 93.2513C31.0704 92.8432 30.5 91.9858 30.5 91H25.5C25.5 93.9724 27.2293 96.536 29.7255 97.7487L31.9104 93.2513Z" fill="black"/>
<path d="M28 83V108C28 110.761 30.2386 113 33 113H100M33 96H95C97.7614 96 100 93.7614 100 91V21C100 18.2386 97.7614 16 95 16H33C30.2386 16 28 18.2386 28 21V91C28 93.7614 30.2386 96 33 96Z" stroke="black" stroke-width="5" stroke-linecap="round" stroke-linejoin="round"/>
</svg>
