<svg width="128" height="128" viewBox="0 0 128 128" fill="none" xmlns="http://www.w3.org/2000/svg">
<path d="M122 113H6" stroke="black" stroke-width="5" stroke-linecap="round" stroke-linejoin="round"/>
<path d="M93 52L93 113L113 113L113 52C113 49.2386 110.761 47 108 47L98 47C95.2386 47 93 49.2386 93 52Z" fill="black" stroke="black" stroke-width="5" stroke-linecap="round" stroke-linejoin="round"/>
<path d="M54 22L54 113L74 113L74 22C74 19.2386 71.7614 17 69 17L59 17C56.2386 17 54 19.2386 54 22Z" fill="black" stroke="black" stroke-width="5" stroke-linecap="round" stroke-linejoin="round"/>
<path d="M16 81L16 113L36 113L36 81C36 78.2386 33.7614 76 31 76L21 76C18.2386 76 16 78.2386 16 81Z" fill="black" stroke="black" stroke-width="5" stroke-linecap="round" stroke-linejoin="round"/>
</svg>
