<svg width="64" height="64" viewBox="0 0 64 64" fill="none" xmlns="http://www.w3.org/2000/svg">
<path d="M4.5 31.5L59.5 31.5" stroke="black" stroke-width="5" stroke-linecap="round" stroke-linejoin="round"/>
<path d="M59.5 31.5L61.3002 33.2347C62.2457 32.2535 62.2313 30.6958 61.2678 29.7322L59.5 31.5ZM34.7678 3.23223C33.7915 2.25592 32.2085 2.25592 31.2322 3.23223C30.2559 4.20854 30.2559 5.79145 31.2322 6.76776L34.7678 3.23223ZM31.1998 57.2653C30.2417 58.2595 30.271 59.8421 31.2653 60.8002C32.2595 61.7583 33.8421 61.729 34.8002 60.7347L31.1998 57.2653ZM61.2678 29.7322L34.7678 3.23223L31.2322 6.76776L57.7322 33.2678L61.2678 29.7322ZM57.6998 29.7653L31.1998 57.2653L34.8002 60.7347L61.3002 33.2347L57.6998 29.7653Z" fill="black"/>
</svg>
