<svg width="64" height="64" viewBox="0 0 64 64" fill="none" xmlns="http://www.w3.org/2000/svg">
<path d="M32.5 4.5L32.5 59.5" stroke="black" stroke-width="5" stroke-linecap="round" stroke-linejoin="round"/>
<path d="M32.5 59.5L30.7653 61.3002C31.7465 62.2457 33.3042 62.2313 34.2678 61.2678L32.5 59.5ZM60.7678 34.7678C61.7441 33.7915 61.7441 32.2086 60.7678 31.2322C59.7915 30.2559 58.2085 30.2559 57.2322 31.2322L60.7678 34.7678ZM6.73474 31.1998C5.74052 30.2417 4.15788 30.271 3.19981 31.2653C2.24174 32.2595 2.27105 33.8421 3.26527 34.8002L6.73474 31.1998ZM34.2678 61.2678L60.7678 34.7678L57.2322 31.2322L30.7322 57.7322L34.2678 61.2678ZM34.2347 57.6998L6.73474 31.1998L3.26527 34.8002L30.7653 61.3002L34.2347 57.6998Z" fill="black"/>
</svg>
