<svg width="64" height="64" viewBox="0 0 64 64" fill="none" xmlns="http://www.w3.org/2000/svg">
<path d="M31.5 59.5L31.5 4.5" stroke="black" stroke-width="5" stroke-linecap="round" stroke-linejoin="round"/>
<path d="M31.5 4.5L33.2347 2.6998C32.2535 1.75426 30.6958 1.76868 29.7322 2.73223L31.5 4.5ZM3.23223 29.2322C2.25592 30.2085 2.25592 31.7915 3.23223 32.7678C4.20854 33.7441 5.79145 33.7441 6.76777 32.7678L3.23223 29.2322ZM57.2653 32.8002C58.2595 33.7583 59.8421 33.729 60.8002 32.7347C61.7583 31.7405 61.729 30.1579 60.7347 29.1998L57.2653 32.8002ZM29.7322 2.73223L3.23223 29.2322L6.76777 32.7678L33.2678 6.26777L29.7322 2.73223ZM29.7653 6.30019L57.2653 32.8002L60.7347 29.1998L33.2347 2.6998L29.7653 6.30019Z" fill="black"/>
</svg>
