<svg width="64" height="64" viewBox="0 0 64 64" fill="none" xmlns="http://www.w3.org/2000/svg">
<path d="M36.2963 3H38.7963C38.7963 1.61929 37.677 0.5 36.2963 0.5V3ZM27.7037 3V0.5C26.323 0.5 25.2037 1.61929 25.2037 3L27.7037 3ZM36.2963 10.9482H33.7963C33.7963 12.1372 34.6337 13.1617 35.799 13.3982L36.2963 10.9482ZM43.7433 14.0096L42.3749 16.1018C43.3653 16.7496 44.6743 16.6142 45.5111 15.7774L43.7433 14.0096ZM49.3826 8.37039L51.1503 6.60262C50.6815 6.13378 50.0456 5.87039 49.3826 5.87039C48.7195 5.87039 48.0836 6.13378 47.6148 6.60262L49.3826 8.37039ZM55.4584 14.4463L57.2262 16.214C58.2025 15.2377 58.2025 13.6548 57.2262 12.6785L55.4584 14.4463ZM49.854 20.0507L48.0862 18.283C47.2418 19.1274 47.1125 20.4512 47.7776 21.4431L49.854 20.0507ZM53.0518 27.7037L50.6017 28.201C50.8383 29.3663 51.8628 30.2037 53.0518 30.2037V27.7037ZM61 27.7037H63.5C63.5 26.323 62.3807 25.2037 61 25.2037V27.7037ZM61 36.2963V38.7963C62.3807 38.7963 63.5 37.677 63.5 36.2963H61ZM53.0518 36.2963V33.7963C51.8628 33.7963 50.8383 34.6337 50.6017 35.799L53.0518 36.2963ZM49.9224 43.8466L47.8381 42.4661C47.1817 43.4573 47.314 44.7737 48.1547 45.6143L49.9224 43.8466ZM55.544 49.4682L57.3118 51.2359C58.2881 50.2596 58.2881 48.6767 57.3118 47.7004L55.544 49.4682ZM49.4682 55.544L47.7004 57.3118C48.6767 58.2881 50.2596 58.2881 51.2359 57.3118L49.4682 55.544ZM43.8465 49.9224L45.6143 48.1547C44.7737 47.314 43.4573 47.1817 42.4661 47.8381L43.8465 49.9224ZM36.2963 53.0518L35.799 50.6017C34.6337 50.8383 33.7963 51.8628 33.7963 53.0518H36.2963ZM36.2963 61V63.5C37.677 63.5 38.7963 62.3807 38.7963 61H36.2963ZM27.7037 61H25.2037C25.2037 62.3807 26.323 63.5 27.7037 63.5V61ZM27.7037 53.0518H30.2037C30.2037 51.8628 29.3663 50.8383 28.201 50.6017L27.7037 53.0518ZM20.0507 49.854L21.4431 47.7776C20.4513 47.1125 19.1274 47.2417 18.283 48.0862L20.0507 49.854ZM14.4463 55.4585L12.6785 57.2262C13.6548 58.2025 15.2377 58.2025 16.214 57.2262L14.4463 55.4585ZM8.37037 49.3826L6.6026 47.6148C6.13376 48.0837 5.87037 48.7195 5.87037 49.3826C5.87037 50.0456 6.13376 50.6815 6.6026 51.1504L8.37037 49.3826ZM14.0096 43.7433L15.7774 45.5111C16.6142 44.6743 16.7496 43.3653 16.1018 42.3749L14.0096 43.7433ZM10.9482 36.2963L13.3983 35.799C13.1617 34.6337 12.1372 33.7963 10.9482 33.7963V36.2963ZM3 36.2963H0.5C0.5 37.677 1.61929 38.7963 3 38.7963L3 36.2963ZM3 27.7037V25.2037C1.61929 25.2037 0.5 26.323 0.5 27.7037H3ZM10.9482 27.7037V30.2037C12.1372 30.2037 13.1617 29.3663 13.3983 28.201L10.9482 27.7037ZM14.0775 20.1534L16.1618 21.5339C16.8183 20.5427 16.686 19.2263 15.8453 18.3857L14.0775 20.1534ZM8.45596 14.5319L6.6882 12.7641C5.71189 13.7404 5.71189 15.3233 6.6882 16.2996L8.45596 14.5319ZM14.5318 8.45597L16.2996 6.68821C15.3233 5.7119 13.7404 5.7119 12.7641 6.68821L14.5318 8.45597ZM20.1534 14.0776L18.3857 15.8453C19.2263 16.686 20.5427 16.8183 21.5339 16.1618L20.1534 14.0776ZM27.7037 10.9482L28.201 13.3982C29.3663 13.1617 30.2037 12.1372 30.2037 10.9482H27.7037ZM36.2963 0.5H27.7037V5.5H36.2963V0.5ZM38.7963 10.9482V3H33.7963V10.9482H38.7963ZM45.1118 11.9174C42.6232 10.2896 39.8116 9.1108 36.7936 8.49818L35.799 13.3982C38.1827 13.8821 40.4049 14.8133 42.3749 16.1018L45.1118 11.9174ZM45.5111 15.7774L51.1503 10.1382L47.6148 6.60262L41.9756 12.2418L45.5111 15.7774ZM47.6148 10.1382L53.6907 16.214L57.2262 12.6785L51.1503 6.60262L47.6148 10.1382ZM53.6907 12.6785L48.0862 18.283L51.6218 21.8185L57.2262 16.214L53.6907 12.6785ZM55.5018 27.2064C54.8702 24.0951 53.6369 21.2032 51.9303 18.6583L47.7776 21.4431C49.1287 23.4579 50.1029 25.7436 50.6017 28.201L55.5018 27.2064ZM61 25.2037H53.0518V30.2037H61V25.2037ZM63.5 36.2963V27.7037H58.5V36.2963H63.5ZM53.0518 38.7963H61V33.7963H53.0518V38.7963ZM52.0067 45.227C53.6737 42.7101 54.8797 39.8583 55.5018 36.7936L50.6017 35.799C50.1104 38.2196 49.1578 40.4736 47.8381 42.4661L52.0067 45.227ZM57.3118 47.7004L51.6902 42.0788L48.1547 45.6143L53.7763 51.2359L57.3118 47.7004ZM51.2359 57.3118L57.3118 51.2359L53.7763 47.7004L47.7004 53.7763L51.2359 57.3118ZM42.0788 51.6902L47.7004 57.3118L51.2359 53.7763L45.6143 48.1547L42.0788 51.6902ZM36.7936 55.5018C39.8583 54.8797 42.7101 53.6738 45.227 52.0067L42.4661 47.8381C40.4736 49.1578 38.2196 50.1104 35.799 50.6017L36.7936 55.5018ZM38.7963 61V53.0518H33.7963V61H38.7963ZM27.7037 63.5H36.2963V58.5H27.7037V63.5ZM25.2037 53.0518V61H30.2037V53.0518H25.2037ZM18.6583 51.9303C21.2032 53.6369 24.0951 54.8702 27.2064 55.5018L28.201 50.6017C25.7436 50.1029 23.4579 49.1287 21.4431 47.7776L18.6583 51.9303ZM18.283 48.0862L12.6785 53.6907L16.214 57.2262L21.8185 51.6217L18.283 48.0862ZM16.214 53.6907L10.1381 47.6148L6.6026 51.1504L12.6785 57.2262L16.214 53.6907ZM10.1381 51.1504L15.7774 45.5111L12.2419 41.9756L6.6026 47.6148L10.1381 51.1504ZM8.4982 36.7936C9.11082 39.8116 10.2896 42.6232 11.9174 45.1118L16.1018 42.3749C14.8133 40.4049 13.8821 38.1827 13.3983 35.799L8.4982 36.7936ZM3 38.7963H10.9482V33.7963H3V38.7963ZM0.5 27.7037V36.2963H5.5V27.7037H0.5ZM10.9482 25.2037H3V30.2037H10.9482V25.2037ZM11.9932 18.773C10.3262 21.2899 9.12028 24.1417 8.49819 27.2064L13.3983 28.201C13.8896 25.7804 14.8422 23.5264 16.1618 21.5339L11.9932 18.773ZM6.6882 16.2996L12.3098 21.9212L15.8453 18.3857L10.2237 12.7641L6.6882 16.2996ZM12.7641 6.68821L6.6882 12.7641L10.2237 16.2996L16.2996 10.2237L12.7641 6.68821ZM21.9212 12.3098L16.2996 6.68821L12.7641 10.2237L18.3857 15.8453L21.9212 12.3098ZM27.2064 8.49818C24.1417 9.12028 21.2899 10.3262 18.7729 11.9933L21.5339 16.1618C23.5264 14.8422 25.7804 13.8896 28.201 13.3982L27.2064 8.49818ZM25.2037 3V10.9482H30.2037V3H25.2037Z" fill="black"/>
<circle cx="32" cy="32" r="12.5" stroke="black" stroke-width="5"/>
</svg>
