<svg width="64" height="64" viewBox="0 0 64 64" fill="none" xmlns="http://www.w3.org/2000/svg">
<path d="M32 34C23 34 17 41.0957 17 48.2672C17 55.4387 24.9627 58 32 58C39.0373 58 47 54.9265 47 48.2672C47 41.6079 41 34 32 34Z" stroke="black" stroke-width="5" stroke-linecap="round" stroke-linejoin="round"/>
<path fill-rule="evenodd" clip-rule="evenodd" d="M5.5 44.7004C5.5 40.7139 8.96927 36.5 14.5 36.5C17.0401 36.5 19.1604 37.4776 20.7038 38.8911C21.8141 37.6629 23.1502 36.6021 24.6794 35.7853C22.2172 33.2445 18.695 31.5 14.5 31.5C6.23073 31.5 0.5 37.9296 0.5 44.7004C0.5 48.5673 2.78762 51.1262 5.56686 52.5818C8.25048 53.9874 11.5683 54.5 14.5 54.5C16.0622 54.5 17.7101 54.3285 19.3063 53.959C18.0913 52.7354 17.2754 51.1989 17.058 49.3036C16.2228 49.4331 15.3589 49.5 14.5 49.5C12.0365 49.5 9.60428 49.0521 7.8867 48.1526C6.26475 47.3031 5.5 46.2121 5.5 44.7004Z" fill="black"/>
<path fill-rule="evenodd" clip-rule="evenodd" d="M43.1301 38.9086C44.6784 37.4651 46.8531 36.5 49.5 36.5C54.9751 36.5 58.5 41.042 58.5 44.7004C58.5 45.9774 57.783 47.0971 56.0759 48.0285C54.3337 48.979 51.8971 49.5 49.5 49.5C48.6292 49.5 47.7623 49.444 46.9294 49.3319C46.6792 51.1819 45.7776 52.7219 44.4532 53.9651C46.1385 54.3431 47.8783 54.5 49.5 54.5C52.4982 54.5 55.8115 53.8684 58.4706 52.4177C61.1646 50.9479 63.5 48.4179 63.5 44.7004C63.5 38.3698 57.8249 31.5 49.5 31.5C45.233 31.5 41.642 33.2119 39.1654 35.7993C40.6833 36.6239 42.0154 37.6901 43.1301 38.9086Z" fill="black"/>
<circle cx="32" cy="19" r="8.5" stroke="black" stroke-width="5"/>
<circle cx="14.5" cy="22.5" r="6" stroke="black" stroke-width="5"/>
<circle cx="49.5" cy="22.5" r="6" stroke="black" stroke-width="5"/>
</svg>
