<svg width="64" height="64" viewBox="0 0 64 64" fill="none" xmlns="http://www.w3.org/2000/svg">
<path d="M18.7559 44.127L16.3177 43.5745C16.1007 44.532 16.4643 45.5279 17.2472 46.1204L18.7559 44.127ZM45.2527 43.674L46.8284 45.6149C47.6041 44.9852 47.9304 43.954 47.6581 42.9926L45.2527 43.674ZM21.1941 44.6795C21.9997 41.1245 26.2146 37.7975 32.062 37.7975V32.7975C24.6218 32.7975 17.7876 37.0885 16.3177 43.5745L21.1941 44.6795ZM32.062 37.7975C37.7173 37.7975 41.8756 40.9247 42.8474 44.3553L47.6581 42.9926C45.9135 36.8335 39.2916 32.7975 32.062 32.7975V37.7975ZM43.6771 41.733C40.4108 44.3845 36.2518 45.9716 31.7153 45.9716V50.9716C37.4406 50.9716 42.7036 48.9633 46.8284 45.6149L43.6771 41.733ZM31.7153 45.9716C27.4115 45.9716 23.4485 44.5433 20.2646 42.1336L17.2472 46.1204C21.2695 49.1647 26.285 50.9716 31.7153 50.9716V45.9716Z" fill="black"/>
<path fill-rule="evenodd" clip-rule="evenodd" d="M22.0816 46.1971C19.8614 47.3656 17.3332 48.0262 14.6474 48.0262C11.6894 48.0262 8.92326 47.225 6.54893 45.827C7.86801 43.5756 10.9099 41.6943 14.9456 41.6943C16.5672 41.6943 18.0317 41.9998 19.2887 42.5119C19.9586 40.9816 21.0515 39.6086 22.456 38.4816C20.2314 37.3303 17.63 36.6943 14.9456 36.6943C8.43444 36.6943 2.37267 40.4526 1.06192 46.2366C0.844927 47.1941 1.20851 48.1901 1.99139 48.7826C5.50991 51.4455 9.89765 53.0262 14.6474 53.0262C19.6552 53.0262 24.2594 51.2693 27.8675 48.3404C27.9366 48.2843 28.0022 48.225 28.0641 48.1628C25.9483 47.8007 23.9381 47.1294 22.0816 46.1971Z" fill="black"/>
<path fill-rule="evenodd" clip-rule="evenodd" d="M35.5656 48.1278C35.6748 48.7348 36.007 49.2929 36.5176 49.6793C40.0361 52.3423 44.4239 53.923 49.1736 53.923C54.1814 53.923 58.7857 52.166 62.3937 49.2372C63.1695 48.6074 63.4957 47.5762 63.2234 46.6148C61.6687 41.1262 55.8006 37.5911 49.4718 37.5911C46.9785 37.5911 44.551 38.1422 42.431 39.1471C43.7122 40.3626 44.6613 41.8068 45.1676 43.3914C46.4139 42.8897 47.864 42.5911 49.4718 42.5911C53.3366 42.5911 56.3095 44.3265 57.7067 46.4585C55.2378 48.0201 52.3134 48.923 49.1736 48.923C46.2156 48.923 43.4495 48.1217 41.0751 46.7238C41.1911 46.5259 41.3203 46.3309 41.4624 46.1398C39.6326 47.0723 37.6515 47.7505 35.5656 48.1278Z" fill="black"/>
<circle cx="32.5" cy="22.5" r="6" stroke="black" stroke-width="5"/>
<circle cx="14.923" cy="27" r="5.5" stroke="black" stroke-width="5"/>
<circle cx="49.923" cy="28" r="5.5" stroke="black" stroke-width="5"/>
</svg>
