<svg width="64" height="64" viewBox="0 0 64 64" fill="none" xmlns="http://www.w3.org/2000/svg">
<path d="M55 15.5V58H16V35H40V16" stroke="black" stroke-width="5" stroke-linejoin="round"/>
<path d="M12 32.5C10.6193 32.5 9.5 33.6193 9.5 35C9.5 36.3807 10.6193 37.5 12 37.5V32.5ZM41 37.5C42.3807 37.5 43.5 36.3807 43.5 35C43.5 33.6193 42.3807 32.5 41 32.5V37.5ZM12 37.5H41V32.5H12V37.5Z" fill="black"/>
<path d="M45.5 28.5C45.5 29.8807 46.6193 31 48 31C49.3807 31 50.5 29.8807 50.5 28.5H45.5ZM50.5 25C50.5 23.6193 49.3807 22.5 48 22.5C46.6193 22.5 45.5 23.6193 45.5 25H50.5ZM50.5 28.5V25H45.5V28.5H50.5Z" fill="black"/>
<path d="M32.184 20.2819C31.2351 21.2848 31.2789 22.8671 32.2819 23.816C33.2848 24.7649 34.8671 24.7211 35.816 23.7181L32.184 20.2819ZM47.2453 8L49.0286 6.24792C48.5528 5.76366 47.9006 5.49371 47.2217 5.50011C46.5429 5.50651 45.8958 5.78871 45.4292 6.28186L47.2453 8ZM59.2167 23.7521C60.1843 24.737 61.7672 24.751 62.7521 23.7833C63.737 22.8157 63.751 21.2328 62.7833 20.2479L59.2167 23.7521ZM35.816 23.7181L49.0613 9.71814L45.4292 6.28186L32.184 20.2819L35.816 23.7181ZM45.462 9.75208L59.2167 23.7521L62.7833 20.2479L49.0286 6.24792L45.462 9.75208Z" fill="black"/>
<path d="M8 5C8 3.61929 6.88071 2.5 5.5 2.5C4.11929 2.5 3 3.61929 3 5H8ZM3 58C3 59.3807 4.11929 60.5 5.5 60.5C6.88071 60.5 8 59.3807 8 58H3ZM3 5V58H8V5H3Z" fill="black"/>
<rect x="6" y="5" width="17" height="11" stroke="black" stroke-width="5" stroke-linejoin="round"/>
<rect x="46" y="44" width="3" height="13" stroke="black" stroke-width="5" stroke-linejoin="round"/>
<rect x="22" y="44" width="5" height="3" stroke="black" stroke-width="5" stroke-linejoin="round"/>
<rect x="34" y="44" width="5" height="3" stroke="black" stroke-width="5" stroke-linejoin="round"/>
</svg>
