<svg width="64" height="64" viewBox="0 0 64 64" fill="none" xmlns="http://www.w3.org/2000/svg">
<path d="M6 32L54.5 32" stroke="black" stroke-width="5" stroke-linecap="round" stroke-linejoin="round"/>
<path d="M57 32L58.7341 33.8008C59.2296 33.3236 59.5066 32.6634 59.4999 31.9755C59.4931 31.2877 59.2033 30.633 58.6985 30.1656L57 32ZM31.6985 5.1656C30.6854 4.22753 29.1037 4.28837 28.1656 5.30148C27.2275 6.31459 27.2884 7.89633 28.3015 8.8344L31.6985 5.1656ZM28.2659 56.1992C27.2713 57.1569 27.2415 58.7395 28.1992 59.7341C29.1569 60.7287 30.7395 60.7585 31.7341 59.8008L28.2659 56.1992ZM58.6985 30.1656L31.6985 5.1656L28.3015 8.8344L55.3015 33.8344L58.6985 30.1656ZM55.2659 30.1992L28.2659 56.1992L31.7341 59.8008L58.7341 33.8008L55.2659 30.1992Z" fill="black"/>
</svg>
