<svg width="64" height="64" viewBox="0 0 64 64" fill="none" xmlns="http://www.w3.org/2000/svg">
<path d="M57 32L8.5 32" stroke="black" stroke-width="5" stroke-linecap="round" stroke-linejoin="round"/>
<path d="M6 32L4.30148 30.1656C3.79673 30.633 3.50685 31.2877 3.50012 31.9755C3.49339 32.6634 3.77039 33.3236 4.2659 33.8008L6 32ZM31.2659 59.8008C32.2605 60.7585 33.8431 60.7287 34.8008 59.7341C35.7585 58.7395 35.7287 57.1569 34.7341 56.1992L31.2659 59.8008ZM34.6985 8.8344C35.7116 7.89633 35.7725 6.31459 34.8344 5.30148C33.8963 4.28837 32.3146 4.22753 31.3015 5.1656L34.6985 8.8344ZM4.2659 33.8008L31.2659 59.8008L34.7341 56.1992L7.7341 30.1992L4.2659 33.8008ZM7.69852 33.8344L34.6985 8.8344L31.3015 5.1656L4.30148 30.1656L7.69852 33.8344Z" fill="black"/>
</svg>
