<svg width="64" height="64" viewBox="0 0 64 64" fill="none" xmlns="http://www.w3.org/2000/svg">
<path d="M20 32.5C20 32.5 25.0387 32.5 31.1381 32.5M20 32.5V19.75M20 32.5V45.25M31.1381 32.5C37.2376 32.5 44 35.671 44 45.25C44 54.829 36.7072 58 30.8729 58C28.0609 58 26.4201 58 24.9993 58C22.2379 58 20 55.7614 20 53V45.25M31.1381 32.5C36.442 32.5 41.7459 26.8187 41.7459 19.75C41.7459 12.6813 36.9724 7 30.6077 7C27.7807 7 26.2304 7 24.9992 7C22.2378 7 20 9.23858 20 12V19.75M20 19.75V45.25" stroke="black" stroke-width="8" stroke-linecap="round"/>
</svg>
