<svg width="64" height="64" viewBox="0 0 64 64" fill="none" xmlns="http://www.w3.org/2000/svg">
<path d="M31.7923 21.0034L17.4722 6.68337C15.5196 4.73075 12.3537 4.73074 10.4011 6.68337L6.10951 10.975C4.15689 12.9276 4.15689 16.0934 6.10951 18.046L20.4296 32.3661" stroke="black" stroke-width="5" stroke-linecap="round"/>
<path d="M31.4849 43.4216L45.3991 57.3359C47.3518 59.2885 50.5176 59.2885 52.4702 57.3359L56.7618 53.0443C58.7144 51.0917 58.7144 47.9259 56.7618 45.9732L42.8475 32.059" stroke="black" stroke-width="5" stroke-linecap="round"/>
<line x1="22.2905" y1="43.2162" x2="10.8111" y2="54.6956" stroke="black" stroke-width="5" stroke-linecap="round"/>
<line x1="42.1443" y1="20.7838" x2="53.6237" y2="9.30439" stroke="black" stroke-width="5" stroke-linecap="round"/>
<line x1="18.1385" y1="39.429" x2="5.42892" y2="47.0347" stroke="black" stroke-width="5" stroke-linecap="round"/>
<line x1="45.8099" y1="25.5585" x2="57.9931" y2="18.0169" stroke="black" stroke-width="5" stroke-linecap="round"/>
<line x1="26.2715" y1="47.299" x2="20.3139" y2="60.7285" stroke="black" stroke-width="5" stroke-linecap="round"/>
<line x1="37.7947" y1="16.6762" x2="44.0959" y2="3.20527" stroke="black" stroke-width="5" stroke-linecap="round"/>
</svg>
