<svg width="64" height="64" viewBox="0 0 64 64" fill="none" xmlns="http://www.w3.org/2000/svg">
<path d="M45.5 31.5L47.2011 33.332C47.7168 32.8532 48.0067 32.1792 47.9999 31.4756C47.993 30.772 47.6899 30.1038 47.165 29.6352L45.5 31.5ZM19.1651 4.63515C18.1351 3.71558 16.5547 3.80503 15.6352 4.83496C14.7156 5.86488 14.805 7.44527 15.835 8.36484L19.1651 4.63515ZM15.7989 55.668C14.7871 56.6075 14.7285 58.1893 15.668 59.2011C16.6075 60.2129 18.1894 60.2715 19.2011 59.332L15.7989 55.668ZM47.165 29.6352L19.1651 4.63515L15.835 8.36484L43.835 33.3648L47.165 29.6352ZM43.7989 29.668L15.7989 55.668L19.2011 59.332L47.2011 33.332L43.7989 29.668Z" fill="black"/>
</svg>
