<svg width="64" height="64" viewBox="0 0 64 64" fill="none" xmlns="http://www.w3.org/2000/svg">
<path d="M32 46L30.168 47.7011C30.6468 48.2168 31.3208 48.5067 32.0244 48.4999C32.728 48.493 33.3962 48.1899 33.8648 47.665L32 46ZM58.8648 19.6651C59.7844 18.6351 59.695 17.0547 58.665 16.1352C57.6351 15.2156 56.0547 15.305 55.1352 16.335L58.8648 19.6651ZM7.83199 16.2989C6.89248 15.2871 5.31065 15.2285 4.29888 16.168C3.2871 17.1075 3.22851 18.6894 4.16802 19.7011L7.83199 16.2989ZM33.8648 47.665L58.8648 19.6651L55.1352 16.335L30.1352 44.335L33.8648 47.665ZM33.832 44.2989L7.83199 16.2989L4.16802 19.7011L30.168 47.7011L33.832 44.2989Z" fill="black"/>
</svg>
