<svg width="64" height="64" viewBox="0 0 64 64" fill="none" xmlns="http://www.w3.org/2000/svg">
<path d="M7 47L23 31" stroke="black" stroke-width="5" stroke-linecap="round" stroke-linejoin="round"/>
<path d="M40 30L58 48" stroke="black" stroke-width="5" stroke-linecap="round" stroke-linejoin="round"/>
<path fill-rule="evenodd" clip-rule="evenodd" d="M49.2145 19.7806L33.4715 31.7543C32.5916 32.4235 31.3765 32.4354 30.4837 31.7834L7.47434 14.9811C6.35929 14.1668 4.79527 14.4107 3.98101 15.5257C3.16676 16.6408 3.4106 18.2048 4.52566 19.019L27.535 35.8214C30.2135 37.7773 33.8586 37.7418 36.4984 35.734L52.6496 23.4498C51.2162 22.5403 50.03 21.276 49.2145 19.7806Z" fill="black"/>
<path fill-rule="evenodd" clip-rule="evenodd" d="M62.5 23.9327V45C62.5 49.1421 59.1421 52.5 55 52.5H9C4.85787 52.5 1.5 49.1421 1.5 45V20C1.5 15.8579 4.85786 12.5 9 12.5H48.315C48.1094 13.299 48 14.1368 48 15C48 15.8632 48.1094 16.701 48.315 17.5H9C7.61929 17.5 6.5 18.6193 6.5 20V45C6.5 46.3807 7.61929 47.5 9 47.5H55C56.3807 47.5 57.5 46.3807 57.5 45V24.9877C57.6656 24.9959 57.8323 25 58 25C59.6186 25 61.1474 24.6154 62.5 23.9327Z" fill="black"/>
<circle cx="58" cy="15" r="5" fill="black"/>
</svg>
