<svg width="64" height="64" viewBox="0 0 64 64" fill="none" xmlns="http://www.w3.org/2000/svg">
<path d="M60 51H4V30H21.1622V37H42.8378V30H60V51Z" stroke="black" stroke-width="5" stroke-linejoin="round"/>
<path d="M2.01075 28.4858C1.17447 29.5844 1.38714 31.153 2.48577 31.9893C3.5844 32.8256 5.15296 32.6129 5.98925 31.5142L2.01075 28.4858ZM16.9405 13V10.5C16.1599 10.5 15.4241 10.8646 14.9513 11.4858L16.9405 13ZM45.6973 13L47.6103 11.3905C47.1353 10.8259 46.4351 10.5 45.6973 10.5V13ZM5.98925 31.5142L18.9298 14.5142L14.9513 11.4858L2.01075 28.4858L5.98925 31.5142ZM16.9405 15.5H45.6973V10.5H16.9405V15.5ZM43.7843 14.6095L58.087 31.6095L61.913 28.3905L47.6103 11.3905L43.7843 14.6095Z" fill="black"/>
</svg>
