<svg width="64" height="64" viewBox="0 0 64 64" fill="none" xmlns="http://www.w3.org/2000/svg">
<path d="M16.5914 21.2711C15.6166 22.2489 15.6191 23.8318 16.5969 24.8066C17.5748 25.7814 19.1577 25.7789 20.1325 24.8011L16.5914 21.2711ZM33.7005 7.64925L31.93 5.88426L31.93 5.88426L33.7005 7.64925ZM54.7201 25.8855L56.4925 27.6486L56.6213 27.5192L56.7298 27.3725L54.7201 25.8855ZM21.9918 58.7876L23.7624 60.5526L23.7643 60.5507L21.9918 58.7876ZM8.92567 57.6478L7.04169 59.2912L7.04169 59.2912L8.92567 57.6478ZM9.49373 46.2502L7.69196 44.5171L7.62886 44.5827L7.5707 44.6527L9.49373 46.2502ZM40.739 13.7668L38.9685 12.0018L38.9527 12.0177L38.9372 12.0337L40.739 13.7668ZM47.5562 20.0355L49.3331 21.7941L49.397 21.7295L49.4561 21.6604L47.5562 20.0355ZM14.3126 50.0718C13.3414 51.0531 13.3496 52.636 14.331 53.6073C15.3123 54.5785 16.8952 54.5703 17.8665 53.5889L14.3126 50.0718ZM20.1325 24.8011L35.4711 9.41424L31.93 5.88426L16.5914 21.2711L20.1325 24.8011ZM35.4711 9.41425C38.8432 6.03146 42.6122 5.24892 45.8888 5.56333C49.3053 5.89116 52.0286 7.4001 52.9975 8.3213L56.4427 4.69766C54.5711 2.91825 50.7613 1.00791 46.3664 0.586193C41.8317 0.151056 36.5112 1.2887 31.93 5.88426L35.4711 9.41425ZM52.9975 8.3213C53.8649 9.14594 55.114 11.4423 55.4281 14.5799C55.7305 17.6009 55.1298 21.1285 52.7104 24.3986L56.7298 27.3725C59.9913 22.9643 60.8109 18.1541 60.4032 14.0818C60.0072 10.1262 58.4158 6.57362 56.4427 4.69766L52.9975 8.3213ZM52.9476 24.1224L20.2194 57.0245L23.7643 60.5507L56.4925 27.6486L52.9476 24.1224ZM20.2213 57.0226C18.3909 58.8587 13.8216 59.4575 10.8096 56.0045L7.04169 59.2912C11.9832 64.9562 19.9117 64.4153 23.7624 60.5526L20.2213 57.0226ZM10.8096 56.0045C8.88343 53.7962 9.08929 50.6494 11.4168 47.8477L7.5707 44.6527C4.21723 48.6895 3.00273 54.6608 7.04169 59.2912L10.8096 56.0045ZM11.2955 47.9833L42.5408 15.4999L38.9372 12.0337L7.69196 44.5171L11.2955 47.9833ZM42.5095 15.5318C43.3031 14.7358 44.2106 14.332 44.9072 14.2584C45.5401 14.1916 45.8875 14.3802 46.122 14.6939L50.1265 11.7C48.6568 9.73418 46.4477 9.06795 44.3822 9.28607C42.3804 9.49745 40.4474 10.5183 38.9685 12.0018L42.5095 15.5318ZM46.122 14.6939C46.7066 15.4759 46.79 15.9896 46.7581 16.3533C46.7212 16.7729 46.4895 17.4364 45.6563 18.4106L49.4561 21.6604C50.6739 20.2365 51.5784 18.6205 51.7389 16.7902C51.9044 14.904 51.2462 13.1976 50.1265 11.7L46.122 14.6939ZM45.7793 18.277L14.3126 50.0718L17.8665 53.5889L49.3331 21.7941L45.7793 18.277Z" fill="black"/>
</svg>
