<svg width="64" height="64" viewBox="0 0 64 64" fill="none" xmlns="http://www.w3.org/2000/svg">
<path d="M41 7H23C21.3431 7 20 8.34315 20 10V24C20 25.6569 21.3431 27 23 27H41C42.6569 27 44 25.6569 44 24V10C44 8.34315 42.6569 7 41 7Z" stroke="black" stroke-width="5" stroke-linejoin="round"/>
<path d="M41 37H23C21.3431 37 20 38.3431 20 40V55C20 56.6569 21.3431 58 23 58H41C42.6569 58 44 56.6569 44 55V40C44 38.3431 42.6569 37 41 37Z" stroke="black" stroke-width="5" stroke-linejoin="round"/>
<path fill-rule="evenodd" clip-rule="evenodd" d="M13 17H12C7.58172 17 4 20.5817 4 25V39C4 43.4183 7.58172 47 12 47H13V42H12C10.3431 42 9 40.6569 9 39V25C9 23.3431 10.3431 22 12 22H13V17ZM50 42H51C52.6569 42 54 40.6569 54 39V25C54 23.3431 52.6569 22 51 22H50V17H51C55.4183 17 59 20.5817 59 25V39C59 43.4183 55.4183 47 51 47H50V42Z" fill="black"/>
<path d="M27 48.5C25.6193 48.5 24.5 49.6193 24.5 51C24.5 52.3807 25.6193 53.5 27 53.5V48.5ZM37 53.5C38.3807 53.5 39.5 52.3807 39.5 51C39.5 49.6193 38.3807 48.5 37 48.5V53.5ZM27 41.5C25.6193 41.5 24.5 42.6193 24.5 44C24.5 45.3807 25.6193 46.5 27 46.5V41.5ZM37 46.5C38.3807 46.5 39.5 45.3807 39.5 44C39.5 42.6193 38.3807 41.5 37 41.5V46.5ZM27 53.5H37V48.5H27V53.5ZM27 46.5H37V41.5H27V46.5Z" fill="black"/>
</svg>
