<svg width="64" height="64" viewBox="0 0 64 64" fill="none" xmlns="http://www.w3.org/2000/svg">
<path d="M58 27.6481L59.7384 29.4448C60.2309 28.9682 60.5062 28.3103 60.4999 27.625C60.4936 26.9397 60.2062 26.287 59.7049 25.8197L58 27.6481ZM39.7049 7.17151C38.695 6.22993 37.1131 6.28527 36.1715 7.29511C35.2299 8.30495 35.2853 9.8869 36.2951 10.8285L39.7049 7.17151ZM36.2616 45.2034C35.2693 46.1635 35.2433 47.7462 36.2034 48.7384C37.1635 49.7307 38.7462 49.7567 39.7384 48.7966L36.2616 45.2034ZM59.7049 25.8197L39.7049 7.17151L36.2951 10.8285L56.2951 29.4766L59.7049 25.8197ZM56.2616 25.8515L36.2616 45.2034L39.7384 48.7966L59.7384 29.4448L56.2616 25.8515Z" fill="black"/>
<path d="M56.5 27.5C23.5 27.5 6 27.5 6 58" stroke="black" stroke-width="5" stroke-linecap="round"/>
</svg>
