<svg width="64" height="64" viewBox="0 0 64 64" fill="none" xmlns="http://www.w3.org/2000/svg">
<path d="M29.5979 8.85411C30.1966 7.01149 32.8034 7.01148 33.4021 8.8541L37.6741 22.002C37.9419 22.8261 38.7098 23.384 39.5762 23.384H53.4008C55.3382 23.384 56.1438 25.8632 54.5764 27.002L43.3921 35.1279C42.6911 35.6372 42.3978 36.5399 42.6655 37.364L46.9375 50.5119C47.5363 52.3545 45.4273 53.8868 43.8599 52.748L32.6756 44.6221C31.9746 44.1128 31.0254 44.1128 30.3244 44.6221L19.1401 52.748C17.5727 53.8868 15.4637 52.3545 16.0624 50.5119L20.3345 37.364C20.6022 36.5399 20.3089 35.6372 19.6079 35.1279L8.42363 27.002C6.85621 25.8632 7.66175 23.384 9.5992 23.384H23.4238C24.2902 23.384 25.0581 22.8261 25.3259 22.002L29.5979 8.85411Z" fill="black" stroke="black" stroke-width="5" stroke-linejoin="round"/>
</svg>
