<svg width="64" height="64" viewBox="0 0 64 64" fill="none" xmlns="http://www.w3.org/2000/svg">
<path d="M57 35C57 37.7614 54.7614 40 52 40V40C49.2386 40 47 37.7614 47 35V16C47 13.2386 49.2386 11 52 11V11C54.7614 11 57 13.2386 57 16V35Z" fill="black"/>
<path d="M26.3414 42.362L23.7724 50.9253C23.3874 52.2085 24.3483 53.5 25.6881 53.5H26.5698C28.1041 53.5 29.5535 52.7956 30.5014 51.5891L38.9316 40.8598C39.6237 39.9789 40 38.891 40 37.7707V18C40 15.2386 37.7614 13 35 13H18.2853C16.2911 13 14.4876 14.185 13.696 16.0154L7.41071 30.5502C7.13977 31.1768 7 31.8522 7 32.5348V33.5C7 36.2614 9.23858 38.5 12 38.5H23.4679C25.4775 38.5 26.9188 40.4372 26.3414 42.362Z" fill="black"/>
<path d="M23.7724 50.9253L26.167 51.6437L26.167 51.6437L23.7724 50.9253ZM26.3414 42.362L23.9468 41.6437L23.9468 41.6437L26.3414 42.362ZM7.41071 30.5502L5.11607 29.5579L5.11607 29.5579L7.41071 30.5502ZM13.696 16.0154L11.4014 15.0232L11.4014 15.0232L13.696 16.0154ZM38.9316 40.8598L40.8974 42.4043L40.8974 42.4043L38.9316 40.8598ZM30.5014 51.5891L32.4672 53.1337L32.4672 53.1337L30.5014 51.5891ZM26.167 51.6437L28.736 43.0804L23.9468 41.6437L21.3778 50.2069L26.167 51.6437ZM23.4679 36H12V41H23.4679V36ZM9.5 33.5V32.5348H4.5V33.5H9.5ZM9.70536 31.5425L15.9907 17.0077L11.4014 15.0232L5.11607 29.5579L9.70536 31.5425ZM18.2853 15.5H35V10.5H18.2853V15.5ZM37.5 18V37.7707H42.5V18H37.5ZM36.9658 39.3152L28.5356 50.0446L32.4672 53.1337L40.8974 42.4043L36.9658 39.3152ZM26.5698 51H25.6881V56H26.5698V51ZM28.5356 50.0446C28.0617 50.6478 27.337 51 26.5698 51V56C28.8713 56 31.0453 54.9433 32.4672 53.1337L28.5356 50.0446ZM35 15.5C36.3807 15.5 37.5 16.6193 37.5 18H42.5C42.5 13.8579 39.1421 10.5 35 10.5V15.5ZM15.9907 17.0077C16.3864 16.0925 17.2882 15.5 18.2853 15.5V10.5C15.294 10.5 12.5887 12.2775 11.4014 15.0232L15.9907 17.0077ZM9.5 32.5348C9.5 32.1935 9.56989 31.8558 9.70536 31.5425L5.11607 29.5579C4.70966 30.4978 4.5 31.5109 4.5 32.5348H9.5ZM12 36C10.6193 36 9.5 34.8807 9.5 33.5H4.5C4.5 37.6421 7.85787 41 12 41V36ZM28.736 43.0804C29.7946 39.5515 27.1522 36 23.4679 36V41C23.8028 41 24.0431 41.3229 23.9468 41.6437L28.736 43.0804ZM21.3778 50.2069C20.5117 53.0942 22.6737 56 25.6881 56V51C26.023 51 26.2632 51.3229 26.167 51.6437L21.3778 50.2069ZM37.5 37.7707C37.5 38.3308 37.3119 38.8748 36.9658 39.3152L40.8974 42.4043C41.9356 41.083 42.5 39.4512 42.5 37.7707H37.5Z" fill="black"/>
</svg>
