<svg width="64" height="64" viewBox="0 0 64 64" fill="none" xmlns="http://www.w3.org/2000/svg">
<path d="M7 29.5C7 26.7386 9.23858 24.5 12 24.5V24.5C14.7614 24.5 17 26.7386 17 29.5V48.5C17 51.2614 14.7614 53.5 12 53.5V53.5C9.23858 53.5 7 51.2614 7 48.5V29.5Z" fill="black"/>
<path d="M50.304 48.4846L48.0093 47.4923L50.304 48.4846ZM56.5893 33.9498L58.8839 34.9421L56.5893 33.9498ZM40.2276 13.5747L37.833 12.8563L40.2276 13.5747ZM37.833 12.8563L35.264 21.4196L40.0532 22.8563L42.6222 14.2931L37.833 12.8563ZM40.5321 28.5H52V23.5H40.5321V28.5ZM54.5 31V31.9652H59.5V31H54.5ZM54.2946 32.9575L48.0093 47.4923L52.5986 49.4768L58.8839 34.9421L54.2946 32.9575ZM45.7147 49H29V54H45.7147V49ZM26.5 46.5V26.7293H21.5V46.5H26.5ZM27.0342 25.1848L35.4644 14.4554L31.5328 11.3663L23.1026 22.0957L27.0342 25.1848ZM37.4302 13.5H38.3119V8.5H37.4302V13.5ZM35.4644 14.4554C35.9383 13.8522 36.663 13.5 37.4302 13.5V8.5C35.1287 8.5 32.9547 9.55666 31.5328 11.3663L35.4644 14.4554ZM29 49C27.6193 49 26.5 47.8807 26.5 46.5H21.5C21.5 50.6421 24.8579 54 29 54V49ZM48.0093 47.4923C47.6136 48.4075 46.7118 49 45.7147 49V54C48.706 54 51.4113 52.2225 52.5986 49.4768L48.0093 47.4923ZM54.5 31.9652C54.5 32.3065 54.4301 32.6442 54.2946 32.9575L58.8839 34.9421C59.2903 34.0022 59.5 32.9892 59.5 31.9652H54.5ZM52 28.5C53.3807 28.5 54.5 29.6193 54.5 31H59.5C59.5 26.8579 56.1421 23.5 52 23.5V28.5ZM35.264 21.4196C34.2054 24.9485 36.8478 28.5 40.5321 28.5V23.5C40.1972 23.5 39.9569 23.1771 40.0532 22.8563L35.264 21.4196ZM42.6222 14.2931C43.4883 11.4058 41.3263 8.5 38.3119 8.5V13.5C37.977 13.5 37.7368 13.1771 37.833 12.8563L42.6222 14.2931ZM26.5 26.7293C26.5 26.1692 26.6881 25.6252 27.0342 25.1848L23.1026 22.0957C22.0644 23.417 21.5 25.0488 21.5 26.7293H26.5Z" fill="black"/>
</svg>
